<svg width="99" height="99" viewBox="0 0 99 99" fill="none" xmlns="http://www.w3.org/2000/svg">
<path d="M15.5339 66.0346C17.2442 66.0346 18.6289 67.4192 18.6289 69.1295C18.6289 70.8399 17.2442 72.2245 15.5339 72.2245C13.8236 72.2245 12.439 70.8399 12.439 69.1295C12.439 67.4192 13.8236 66.0346 15.5339 66.0346Z" fill="#EF3E5C"/>
<path d="M16.293 68.122C17.2253 68.122 18.0589 68.5356 18.6259 69.1869C18.6264 69.1678 18.6289 69.1487 18.6289 69.1296C18.6289 67.4192 17.2442 66.0346 15.5339 66.0346C13.8236 66.0346 12.439 67.4192 12.439 69.1296C12.439 69.9075 12.7278 70.616 13.201 71.1596C13.2317 69.4762 14.602 68.122 16.293 68.122Z" fill="#E42A53"/>
<path d="M14.5456 36.365C16.0623 36.365 17.2898 37.5925 17.2898 39.107C17.2898 41.8489 14.5456 43.4089 11.8036 46.1509C9.06166 43.4089 6.3197 41.8489 6.3197 39.107C6.3197 37.5925 7.54743 36.365 9.06166 36.365C10.4329 36.365 11.1181 37.0505 11.8036 38.4215C12.4889 37.0505 13.1746 36.365 14.5456 36.365Z" fill="#EF3E5C"/>
<path d="M8.79725 39.8471C8.79725 38.5212 9.73825 37.4156 10.9885 37.1605C10.5012 36.6303 9.91407 36.365 9.06142 36.365C7.5472 36.365 6.31947 37.5925 6.31947 39.107C6.31947 41.8489 9.06142 43.4089 11.8034 46.1509C12.0821 45.8721 12.3604 45.6064 12.6364 45.3495C10.5406 43.4681 8.79725 42.0332 8.79725 39.8471Z" fill="#E42A53"/>
<path d="M28.0137 16.5086C30.8103 16.5086 33.0742 18.7723 33.0742 21.5621C33.0742 26.6156 28.0137 29.4942 22.9604 34.5477C17.907 29.4942 12.8535 26.6156 12.8535 21.5621C12.8535 18.7723 15.1169 16.5086 17.9067 16.5086C20.4323 16.5086 21.6965 17.7726 22.9602 20.2982C24.2244 17.7726 25.4881 16.5086 28.0137 16.5086Z" fill="#EF3E5C"/>
<path d="M15.8141 22.7008C15.8141 19.911 18.0775 17.6473 20.8673 17.6473C20.9598 17.6473 21.047 17.6526 21.136 17.656C20.3007 16.8928 19.2948 16.5086 17.9067 16.5086C15.1169 16.5086 12.8535 18.7723 12.8535 21.5621C12.8535 26.6156 17.9067 29.4942 22.9604 34.5477C23.2508 34.2571 23.5414 33.9745 23.8311 33.6975C19.5626 29.7932 15.8141 27.0529 15.8141 22.7008Z" fill="#E42A53"/>
<path d="M86.7382 22.2977C90.3114 25.8709 88.7696 31.4846 88.7696 38.631C81.6209 38.631 76.0141 40.1705 72.4386 36.5973C70.4666 34.6229 70.4666 31.4232 72.4386 29.4487C74.2266 27.6632 76.0141 27.6632 78.6922 28.5559C77.7995 25.8755 77.7995 24.0877 79.5875 22.3023C81.564 20.3255 84.766 20.3255 86.7382 22.2977Z" fill="#EF3E5C"/>
<path d="M86.7382 22.2977C84.766 20.3255 81.564 20.3255 79.5875 22.3023C78.6704 23.2182 78.2261 24.1358 78.1293 25.1731C80.068 24.0351 82.5972 24.292 84.2574 25.9525C87.2057 28.9007 86.6721 33.2396 86.395 38.6814C87.1665 38.6515 87.9577 38.631 88.7698 38.631C88.7696 31.4846 90.3114 25.8709 86.7382 22.2977Z" fill="#E42A53"/>
<path d="M55.7728 0H45.4563V6.18989H55.7728V0Z" fill="#E53935"/>
<path d="M47.354 1.95626H55.7728V0H45.4563V6.18989H47.354V1.95626Z" fill="#D32A2A"/>
<path d="M59.9017 6.18988V14.4453H55.8001H45.8298H41.3297V6.18988H45.4563H55.7728H59.9017Z" fill="#D32F2E"/>
<path d="M42.9523 7.86944H47.0789H57.3954H59.9017V6.18988H55.7728H45.4563H41.3297V14.4453H42.9523V7.86944Z" fill="#C12727"/>
<path d="M59.8288 45.3994H42.6825C45.1079 34.4885 46.5565 23.5708 45.8298 14.4453H55.8001C56.0142 24.336 57.6106 35.0396 59.8288 45.3994Z" fill="#EF3E5C"/>
<path d="M44.4993 45.3994C46.7357 34.9656 48.0336 24.5972 47.3385 15.8687H55.8432C55.8268 15.393 55.8104 14.9174 55.8003 14.4453H45.83C46.5565 23.5708 45.1081 34.4885 42.6827 45.3994H44.4993Z" fill="#E42A53"/>
<path d="M63.3337 59.8449H38.9542C40.3206 55.1376 41.5982 50.2684 42.6822 45.3994H59.8286C60.8832 50.3346 62.0788 55.1895 63.3337 59.8449Z" fill="#BE0000"/>
<path d="M44.5041 47.2896H60.2403C60.1012 46.661 59.9636 46.0309 59.8286 45.3994H42.6822C41.5982 50.2684 40.3206 55.1376 38.9542 59.8449H41.317C42.4793 55.7295 43.5647 51.5098 44.5041 47.2896Z" fill="#970000"/>
<path d="M76.4103 99.0522H72.2814H59.9017V83.5749C59.9017 81.0106 58.8632 78.6902 57.1827 77.0093C55.5018 75.3288 53.1791 74.288 50.6145 74.288C45.4859 74.288 41.3297 78.4465 41.3297 83.5749V99.0522H24.821C24.821 99.0522 32.7896 81.088 38.9544 59.845H63.3339C69.2252 81.6799 76.4103 99.0522 76.4103 99.0522Z" fill="#EF3E5C"/>
<path d="M40.0929 61.8946H63.8941C63.7062 61.2159 63.5193 60.5327 63.3337 59.845H38.9542C32.7896 81.088 24.8208 99.0522 24.8208 99.0522H26.8422C29.0832 93.7648 35.1644 78.8783 40.0929 61.8946Z" fill="#E42A53"/>
<path d="M61.0403 99.0521V85.6245C61.0403 83.5674 60.3708 81.6676 59.2385 80.1286C59.6648 81.1944 59.9017 82.3565 59.9017 83.5749V99.0521H61.0403Z" fill="#E42A53"/>
<path d="M76.4103 60.9836H24.8211C24.192 60.9836 23.6824 60.474 23.6824 59.845C23.6824 59.2159 24.192 58.7063 24.8211 58.7063H76.4103C77.0393 58.7063 77.549 59.2159 77.549 59.845C77.549 60.474 77.0393 60.9836 76.4103 60.9836Z" fill="#D32F2E"/>
<path d="M68.1549 46.5381H33.0742C32.4452 46.5381 31.9356 46.0281 31.9356 45.3994C31.9356 44.7706 32.4452 44.2607 33.0742 44.2607H68.1549C68.7839 44.2607 69.2935 44.7706 69.2935 45.3994C69.2935 46.0281 68.7839 46.5381 68.1549 46.5381Z" fill="#E53935"/>
<path d="M97.0456 99.0522H72.2814C71.6524 99.0522 71.1428 98.5425 71.1428 97.9135C71.1428 97.2845 71.6524 96.7748 72.2814 96.7748H97.0456C97.6746 96.7748 98.1842 97.2845 98.1842 97.9135C98.1842 98.5425 97.6746 99.0522 97.0456 99.0522Z" fill="#EF3E5C"/>
<path d="M25.9028 99.0522H1.13868C0.509896 99.0522 -7.62939e-06 98.5425 -7.62939e-06 97.9135C-7.62939e-06 97.2845 0.509896 96.7748 1.13868 96.7748H25.9028C26.5316 96.7748 27.0415 97.2845 27.0415 97.9135C27.0415 98.5425 26.5316 99.0522 25.9028 99.0522Z" fill="#E42A53"/>
<path d="M86.004 52.3695C87.7143 52.3695 89.0989 53.7541 89.0989 55.4644C89.0989 57.1747 87.7143 58.5594 86.004 58.5594C84.2934 58.5594 82.909 57.1747 82.909 55.4644C82.909 53.7541 84.2934 52.3695 86.004 52.3695Z" fill="#EF3E5C"/>
<path d="M86.763 54.4574C87.6954 54.4574 88.5289 54.8705 89.096 55.5218C89.0964 55.5027 89.0989 55.484 89.0989 55.4644C89.0989 53.7541 87.7143 52.3695 86.004 52.3695C84.2934 52.3695 82.909 53.7541 82.909 55.4644C82.909 56.2424 83.1976 56.9513 83.671 57.4949C83.702 55.8115 85.0718 54.4574 86.763 54.4574Z" fill="#E42A53"/>
</svg>
