<svg width="354" height="197" viewBox="0 0 354 197" fill="none" xmlns="http://www.w3.org/2000/svg">
<path d="M165.732 132.249C168.491 138.665 165.527 146.105 159.106 148.865C152.689 151.624 145.249 148.655 142.49 142.239C139.73 135.822 142.699 128.382 149.116 125.623C155.532 122.864 162.973 125.828 165.732 132.249Z" fill="#8EAA39"/>
<path d="M151.447 132.783C157.03 130.383 163.385 132.316 166.761 137.087C166.741 135.469 166.411 133.828 165.732 132.249C162.972 125.828 155.532 122.864 149.116 125.623C142.699 128.382 139.73 135.822 142.49 142.239C142.849 143.073 143.288 143.847 143.793 144.56C143.734 139.603 146.611 134.863 151.447 132.783Z" fill="#80962F"/>
<path d="M124.073 150.404C126.833 156.821 123.869 164.261 117.452 167.02C111.031 169.78 103.596 166.811 100.836 160.395C98.0769 153.978 101.041 146.538 107.457 143.778C113.874 141.019 121.315 143.988 124.073 150.404Z" fill="#EF3E5C"/>
<path d="M110.031 149.445C115.378 147.146 121.434 148.827 124.901 153.163C124.734 152.233 124.462 151.309 124.073 150.404C121.314 143.988 113.874 141.019 107.457 143.778C101.041 146.538 98.0769 153.978 100.836 160.395C101.296 161.465 101.889 162.436 102.582 163.303C101.559 157.641 104.52 151.816 110.031 149.445Z" fill="#D8395B"/>
<path d="M80.5774 166.49C83.3367 172.906 80.3727 180.346 73.9515 183.106C67.535 185.865 60.0949 182.901 57.3356 176.484C54.5759 170.063 57.545 162.628 63.9615 159.869C70.3776 157.109 77.8177 160.073 80.5774 166.49Z" fill="#B0B7DC"/>
<path d="M66.2927 166.145C71.8484 163.755 78.17 165.66 81.5578 170.379C81.4424 169.072 81.1237 167.761 80.5779 166.49C77.8182 160.074 70.378 157.11 63.962 159.869C57.5455 162.629 54.5764 170.064 57.3361 176.485C57.706 177.346 58.1629 178.142 58.6878 178.873C58.2211 173.58 61.146 168.358 66.2927 166.145Z" fill="#9AA2C1"/>
<path d="M35.6149 178.625C38.3746 185.041 35.4106 192.482 28.9941 195.241C22.573 198 15.1328 195.036 12.3736 188.615C9.61899 182.198 12.5825 174.758 18.999 171.999C25.4155 169.24 32.8557 172.208 35.6149 178.625Z" fill="#FFD15C"/>
<path d="M20.9574 178.048C26.7411 175.561 33.3554 177.729 36.6246 182.88C36.5409 181.452 36.2123 180.015 35.6149 178.625C32.8557 172.208 25.4155 169.24 18.999 171.999C12.5825 174.758 9.61899 182.198 12.3736 188.615C12.6462 189.25 12.9659 189.849 13.3251 190.414C13.0217 185.247 15.9285 180.211 20.9574 178.048Z" fill="#E5B64E"/>
<path d="M53.3057 109.779C54.7527 116.609 50.3877 123.323 43.5576 124.775C36.7228 126.227 30.008 121.862 28.5563 115.027C27.1097 108.192 31.4742 101.478 38.3043 100.031C45.1401 98.5791 51.8539 102.944 53.3057 109.779Z" fill="#B0B7DC"/>
<path d="M28.6242 115.312C29.7228 110.709 33.3689 106.913 38.3043 105.868C45.0433 104.436 51.6608 108.66 53.2373 115.33C53.6598 113.562 53.7077 111.675 53.3057 109.779C51.8539 102.944 45.1396 98.5791 38.3043 100.031C31.4737 101.478 27.1092 108.192 28.5563 115.027C28.5768 115.124 28.6019 115.217 28.6242 115.312Z" fill="#9AA2C1"/>
<path d="M99.7706 106.68C101.222 113.511 96.8578 120.225 90.023 121.676C83.1878 123.128 76.4735 118.763 75.0264 111.929C73.5746 105.093 77.9392 98.379 84.7744 96.9319C91.6046 95.4806 98.3235 99.8451 99.7706 106.68Z" fill="#FFD15C"/>
<path d="M86.1699 102.958C91.8759 101.745 97.5014 104.593 100.043 109.547C100.06 108.603 99.9749 107.643 99.7702 106.68C98.3235 99.8451 91.6041 95.4801 84.774 96.9319C77.9387 98.379 73.5742 105.093 75.0259 111.929C75.2646 113.054 75.648 114.111 76.1492 115.088C76.2529 109.333 80.2973 104.201 86.1699 102.958Z" fill="#E5B64E"/>
<path d="M145.575 99.4171C147.027 106.248 142.662 112.962 135.827 114.413C128.996 115.865 122.282 111.5 120.831 104.665C119.379 97.8299 123.743 91.1156 130.578 89.6685C137.413 88.2168 144.128 92.5818 145.575 99.4171Z" fill="#F34E2D"/>
<path d="M190.723 87.9842C192.17 94.8194 187.805 101.534 180.975 102.985C174.14 104.433 167.425 100.068 165.974 93.2374C164.527 86.4021 168.892 79.6879 175.722 78.2361C182.557 76.789 189.271 81.1536 190.723 87.9842Z" fill="#B0B7DC"/>
<path d="M177.166 85.0514C182.819 83.8542 188.387 86.6353 190.965 91.4972C191.046 90.3474 190.974 89.1684 190.723 87.9846C189.271 81.154 182.557 76.7895 175.722 78.2366C168.891 79.6883 164.526 86.4026 165.974 93.2379C166.224 94.4188 166.636 95.5239 167.175 96.5401C167.56 91.0505 171.518 86.2514 177.166 85.0514Z" fill="#9AA2C1"/>
<path d="M166.109 17.5375C168.868 23.9541 165.904 31.3942 159.487 34.1535C153.071 36.9127 145.631 33.9441 142.871 27.5276C140.112 21.1111 143.076 13.6709 149.493 10.9117C155.909 8.15242 163.349 11.121 166.109 17.5375Z" fill="#B0B7DC"/>
<path d="M146.886 32.5933C144.126 26.1768 147.09 18.7366 153.507 15.9774C157.811 14.126 162.575 14.856 166.079 17.4724C163.297 11.1015 155.888 8.16173 149.493 10.9117C143.076 13.6709 140.112 21.1111 142.871 27.5276C143.78 29.6391 145.197 31.3742 146.915 32.658C146.906 32.6361 146.895 32.6156 146.886 32.5933Z" fill="#9AA2C1"/>
<path d="M124.073 37.5781C126.833 43.9992 123.869 51.4347 117.452 54.194C111.031 56.9532 103.596 53.9892 100.836 47.5727C98.0769 41.1562 101.041 33.7161 107.457 30.9568C113.874 28.1976 121.315 31.162 124.073 37.5781Z" fill="#EF3E5C"/>
<path d="M105.257 52.833C102.497 46.4165 105.461 38.9763 111.878 36.2171C115.993 34.4475 120.527 35.0352 123.98 37.3747C121.151 31.1011 113.805 28.2278 107.457 30.9573C101.041 33.7165 98.0769 41.1567 100.836 47.5732C101.826 49.8751 103.42 51.7297 105.351 53.0382C105.32 52.9688 105.286 52.9023 105.257 52.833Z" fill="#D8395B"/>
<path d="M80.5774 53.6682C83.3367 60.0847 80.3727 67.5249 73.9515 70.2841C67.535 73.0433 60.0949 70.0747 57.3356 63.6582C54.5759 57.2417 57.545 49.8015 63.9615 47.0423C70.3776 44.2831 77.8177 47.247 80.5774 53.6682Z" fill="#8EAA39"/>
<path d="M60.797 68.1516C58.0378 61.7351 61.0064 54.295 67.4229 51.5357C71.9149 49.6043 76.9067 50.4799 80.4448 53.3811C77.5883 47.1614 70.2798 44.3254 63.9611 47.0428C57.5445 49.802 54.5755 57.2422 57.3352 63.6587C58.162 65.5827 59.4127 67.1936 60.9278 68.4359C60.884 68.341 60.8384 68.2479 60.797 68.1516Z" fill="#80962F"/>
<path d="M35.6149 65.7986C38.3746 72.2198 35.4106 79.6553 28.9941 82.4191C22.573 85.1784 15.1328 82.2098 12.3736 75.7933C9.61899 69.3768 12.5825 61.9366 18.999 59.1774C25.4155 56.4181 32.8557 59.3821 35.6149 65.7986Z" fill="#FFD15C"/>
<path d="M16.6571 80.6282C13.9026 74.2117 16.8665 66.7716 23.283 64.0123C27.3605 62.2591 31.8488 62.8193 35.2892 65.1053C32.3071 59.1732 25.1791 56.52 18.999 59.1778C12.5825 61.9371 9.61899 69.3772 12.3736 75.7937C13.3796 78.1333 15.0095 80.0117 16.9838 81.3239C16.8693 81.0963 16.759 80.8655 16.6571 80.6282Z" fill="#E5B64E"/>
<path d="M2.32958 63.1561C1.60092 63.1561 0.883888 62.8151 0.43022 62.1757C-0.0322896 61.5239 -0.129538 60.6682 0.1757 59.9293C0.684274 58.6981 1.76052 58.4934 2.90004 58.2765C3.55332 58.1523 4.51231 57.9871 5.75466 57.7735C77.8089 45.3826 128.996 19.7161 159.248 0.366999C160.332 -0.325369 161.77 -0.00943037 162.462 1.07333C163.154 2.15562 162.838 3.59433 161.755 4.2867C131.142 23.8675 79.3634 49.8369 6.54335 62.3591C5.15442 62.5978 3.83297 62.8253 3.30857 62.9388C2.99589 63.0849 2.66134 63.1561 2.32958 63.1561Z" fill="#415A6B"/>
<path d="M2.32958 175.982C1.60092 175.982 0.883421 175.641 0.429752 175.002C-0.0327574 174.35 -0.129075 173.494 0.175697 172.756C0.684736 171.525 1.76098 171.32 2.9005 171.103C3.55472 170.979 4.51417 170.813 5.75745 170.599C77.8126 158.204 128.998 132.54 159.248 113.194C160.332 112.5 161.77 112.818 162.462 113.9C163.154 114.983 162.838 116.422 161.755 117.113C131.143 136.691 79.3672 162.658 6.54613 175.185C5.15675 175.424 3.8339 175.652 3.30904 175.766C2.99589 175.911 2.6618 175.982 2.32958 175.982Z" fill="#415A6B"/>
<path d="M131.741 96.9319C137.543 95.6998 143.255 98.6582 145.736 103.76C145.929 102.352 145.888 100.887 145.575 99.4171C144.128 92.5818 137.414 88.2168 130.578 89.6685C123.743 91.1156 119.379 97.8299 120.831 104.665C121.05 105.698 121.391 106.673 121.833 107.582C122.537 102.446 126.378 98.0672 131.741 96.9319Z" fill="#E04127"/>
<path d="M38.3481 100.887C34.111 100.887 29.8219 100.831 25.4578 100.714C24.0526 100.677 22.7163 100.642 22.1807 100.65C21.1091 100.913 19.9719 100.377 19.5076 99.3347C19.1828 98.6051 19.2558 97.7476 19.6997 97.0836C20.44 95.9771 21.534 95.985 22.6916 95.9976C23.3556 96.0036 24.3258 96.0292 25.5825 96.0632C98.6665 98.0151 153.894 82.8635 187.356 69.8062C188.552 69.3395 189.902 69.9309 190.369 71.1277C190.837 72.3244 190.244 73.6738 189.048 74.1405C157.186 86.5734 105.829 100.886 38.3481 100.887Z" fill="#415A6B"/>
<path d="M334.988 -11.6177C339.314 -6.13394 338.376 1.81984 332.893 6.14577C327.409 10.4716 319.454 9.52977 315.128 4.04616C310.802 -1.43756 311.739 -9.39134 317.223 -13.7173C322.707 -18.0432 330.662 -17.1014 334.988 -11.6177Z" fill="#B0B7DC"/>
<path d="M320.316 7.90036C315.99 2.41663 316.928 -5.53715 322.412 -9.86308C326.09 -12.7655 330.881 -13.2933 334.942 -11.6729C330.606 -17.1068 322.689 -18.0287 317.223 -13.7173C311.739 -9.39133 310.802 -1.43755 315.128 4.04617C316.552 5.85068 318.369 7.15997 320.361 7.95525C320.347 7.93641 320.331 7.91952 320.316 7.90036Z" fill="#9AA2C1"/>
<path d="M299.572 18.6196C303.899 24.1078 302.96 32.0571 297.476 36.383C291.988 40.7101 284.039 39.7715 279.713 34.2879C275.387 28.8041 276.324 20.8504 281.808 16.5244C287.292 12.1985 295.246 13.1362 299.572 18.6196Z" fill="#EF3E5C"/>
<path d="M285.344 38.2248C281.018 32.7411 281.956 24.7873 287.439 20.4614C290.956 17.687 295.488 17.0811 299.429 18.4474C295.073 13.1196 287.233 12.2455 281.808 16.5249C276.324 20.8508 275.387 28.8046 279.713 34.2883C281.265 36.2555 283.285 37.6345 285.488 38.3987C285.44 38.3397 285.391 38.2841 285.344 38.2248Z" fill="#D8395B"/>
<path d="M261.722 45.419C266.048 50.9027 265.111 58.8565 259.623 63.1836C254.139 67.5095 246.184 66.5677 241.858 61.084C237.532 55.6004 238.474 47.6453 243.958 43.3194C249.441 38.9936 257.395 39.9309 261.722 45.419Z" fill="#8EAA39"/>
<path d="M246.364 64.5284C242.038 59.0447 242.98 51.0897 248.464 46.7638C252.303 43.7355 257.351 43.2894 261.52 45.176C257.151 39.9075 249.357 39.0597 243.957 43.3199C238.473 47.6459 237.531 55.601 241.858 61.0846C243.154 62.729 244.779 63.9613 246.564 64.7692C246.497 64.6888 246.429 64.6108 246.364 64.5284Z" fill="#80962F"/>
<path d="M221.431 68.7732C225.759 74.2613 224.82 82.2106 219.338 86.541C213.85 90.8681 205.895 89.9263 201.569 84.4426C197.247 78.9577 198.184 71.004 203.668 66.6781C209.152 62.3522 217.105 63.2895 221.431 68.7732Z" fill="#FFD15C"/>
<path d="M206.958 88.0041C202.636 82.5192 203.574 74.5654 209.057 70.2395C212.542 67.4907 217.022 66.8701 220.937 68.1878C216.521 63.2297 208.95 62.5118 203.668 66.6785C198.184 71.0045 197.247 78.9581 201.569 84.443C203.146 86.4425 205.207 87.8351 207.453 88.5915C207.284 88.4014 207.118 88.207 206.958 88.0041Z" fill="#E5B64E"/>
<path d="M187.004 75.3636C186.293 75.5648 185.503 75.4399 184.889 74.96C184.264 74.4707 183.939 73.6876 184.039 72.904C184.205 71.5984 185.199 71.1075 186.252 70.5878C186.856 70.2898 187.746 69.8688 188.9 69.3237C255.825 37.7064 298.848 -0.715555 323.156 -27.3797C324.027 -28.3341 325.513 -28.432 326.478 -27.5982C327.443 -26.7649 327.52 -25.316 326.65 -24.3618C302.053 2.62127 258.534 41.4932 190.898 73.4461C189.608 74.0554 188.381 74.6355 187.9 74.8877C187.634 75.1123 187.327 75.2721 187.004 75.3636Z" fill="#415A6B"/>
</svg>
