<svg width="417" height="469" viewBox="0 0 417 469" fill="none" xmlns="http://www.w3.org/2000/svg">
<g opacity="0.25">
<path d="M144.12 385.224C155.954 385.224 165.562 394.832 165.562 406.678C165.562 418.512 155.954 428.121 144.12 428.121C132.275 428.121 122.666 418.512 122.666 406.678C122.666 394.832 132.276 385.224 144.12 385.224Z" fill="#FFD15C"/>
<path d="M139.796 400.016C151.021 400.016 160.23 408.668 161.147 419.667C163.906 416.059 165.564 411.566 165.564 406.677C165.564 394.831 155.955 385.223 144.121 385.223C132.276 385.223 122.667 394.831 122.667 406.677C122.667 407.283 122.709 407.878 122.758 408.472C126.679 403.341 132.843 400.016 139.796 400.016Z" fill="#EAB94E"/>
<path d="M340.356 403.673C348.604 411.909 348.64 425.244 340.451 433.433C333.031 440.853 325.588 440.842 314.405 437.089C318.156 448.26 318.179 455.703 310.761 463.123C302.548 471.335 289.212 471.288 280.976 463.052C266.054 448.13 272.408 424.771 272.324 394.997C302.087 395.08 325.434 388.738 340.356 403.673Z" fill="#EF3E5C"/>
<path d="M280.313 407.941C308.683 408.019 331.217 402.275 346.188 414.671C345.421 410.645 343.48 406.793 340.356 403.673C325.435 388.739 302.087 395.08 272.325 394.999C272.408 424.772 266.054 448.13 280.977 463.053C281.108 463.184 281.253 463.297 281.389 463.425C276.791 449.142 280.375 430.361 280.313 407.941Z" fill="#E42A53"/>
<path d="M448.94 143.524C457.153 151.736 457.105 165.073 448.869 173.309C433.935 188.243 410.576 181.876 380.815 181.959C380.896 152.198 374.555 128.85 389.476 113.928C397.725 105.681 411.06 105.645 419.249 113.834C426.67 121.265 426.645 128.708 422.893 139.879C434.077 136.128 441.521 136.104 448.94 143.524Z" fill="#EF3E5C"/>
<path d="M398.352 124.283C405.392 117.243 416.127 116.208 424.216 121.14C423.246 118.622 421.638 116.227 419.25 113.834C411.061 105.645 397.726 105.681 389.477 113.928C374.556 128.85 380.898 152.198 380.816 181.959C383.774 181.951 386.666 182.008 389.497 182.1C388.574 157.188 385.182 137.452 398.352 124.283Z" fill="#E42A53"/>
<path d="M304.95 20.6569C316.796 20.6569 326.404 30.2539 326.404 42.0992C326.404 53.9445 316.796 63.5533 304.95 63.5533C293.117 63.5533 283.508 53.9445 283.508 42.0992C283.508 30.2539 293.117 20.6569 304.95 20.6569Z" fill="#FFD15C"/>
<path d="M308.199 32.6348C315.867 32.6348 322.579 36.67 326.372 42.7204C326.378 42.5122 326.403 42.3086 326.403 42.0992C326.403 30.2539 316.794 20.6569 304.949 20.6569C293.116 20.6569 283.507 30.2539 283.507 42.0992C283.507 46.2764 284.72 50.1625 286.786 53.4593C287.118 41.9028 296.573 32.6348 308.199 32.6348Z" fill="#EAB94E"/>
<path d="M212.72 202.94C228.151 202.94 240.623 215.401 240.623 230.831C240.623 246.262 228.151 258.735 212.72 258.735C197.301 258.735 184.829 246.262 184.829 230.831C184.829 215.401 197.301 202.94 212.72 202.94Z" fill="#FFD15C"/>
<path d="M206.797 217.732C222.228 217.732 234.701 230.192 234.701 245.625C234.701 246.487 234.656 247.338 234.579 248.179C238.36 243.42 240.622 237.396 240.622 230.832C240.622 215.401 228.15 202.94 212.719 202.94C198.16 202.94 186.236 214.05 184.948 228.28C190.055 221.851 197.937 217.732 206.797 217.732Z" fill="#EAB94E"/>
<path d="M26.1651 149.334C38.0105 149.334 47.6074 158.931 47.6074 170.777C47.6074 182.622 38.0105 192.219 26.1651 192.219C14.3198 192.219 4.72285 182.622 4.72285 170.777C4.72166 158.931 14.3186 149.334 26.1651 149.334Z" fill="#FFD15C"/>
<path d="M23.0091 160.055C34.8545 160.055 44.4514 169.652 44.4514 181.498C44.4514 181.659 44.4313 181.814 44.4278 181.972C46.4312 178.711 47.6074 174.886 47.6074 170.777C47.6074 158.931 38.0105 149.334 26.1651 149.334C14.4796 149.334 5.00212 158.678 4.74651 170.301C8.51785 164.162 15.2736 160.055 23.0091 160.055Z" fill="#EAB94E"/>
<path d="M65.5931 6.20821C80.5151 21.1302 74.1606 44.4895 74.2434 74.2626C44.4703 74.1798 21.1347 80.5225 6.20083 65.5887C-2.03528 57.3525 -2.07078 44.0162 6.11799 35.8274C13.5376 28.396 20.9809 28.4197 32.1517 32.1709C28.4005 21.0001 28.3768 13.5568 35.8082 6.13721C44.0207 -2.07523 57.3464 -2.03973 65.5931 6.20821Z" fill="#EF3E5C"/>
<path d="M65.5931 6.20821C57.3452 -2.03973 44.0207 -2.07523 35.8082 6.13721C32.6475 9.2932 30.8465 12.4551 30.0962 15.9046C38.3394 9.64584 50.1469 10.2872 57.7037 17.8441C70.6413 30.7816 67.5871 50.0667 66.599 74.3715C69.0982 74.2993 71.6448 74.2555 74.2434 74.2626C74.1618 44.4895 80.5152 21.1302 65.5931 6.20821Z" fill="#E42A53"/>
<path d="M212.72 134.957C209.453 134.957 206.803 132.307 206.803 129.04V65.7188C206.803 62.4516 209.453 59.8021 212.72 59.8021C215.987 59.8021 218.637 62.4516 218.637 65.7188V129.04C218.637 132.307 215.987 134.957 212.72 134.957Z" fill="#FFD15C"/>
<path d="M212.72 178.835C209.453 178.835 206.803 176.186 206.803 172.918V160.055C206.803 156.788 209.453 154.139 212.72 154.139C215.987 154.139 218.637 156.788 218.637 160.055V172.918C218.637 176.186 215.987 178.835 212.72 178.835Z" fill="#FFD15C"/>
<path d="M284.467 165.014C282.961 165.014 281.455 164.443 280.301 163.299C277.979 160.999 277.963 157.252 280.263 154.931L325.148 109.645C327.448 107.324 331.196 107.306 333.515 109.607C335.837 111.907 335.853 115.654 333.553 117.974L288.669 163.261C287.514 164.429 285.989 165.014 284.467 165.014Z" fill="#FFD15C"/>
<path d="M253.581 195.887C252.065 195.887 250.549 195.309 249.394 194.151C247.086 191.839 247.088 188.092 249.4 185.784L258.417 176.778C260.73 174.47 264.477 174.472 266.785 176.784C269.094 179.097 269.091 182.843 266.779 185.152L257.762 194.157C256.607 195.31 255.093 195.887 253.581 195.887Z" fill="#FFD15C"/>
<path d="M377.833 236.749H314.121C310.853 236.749 308.204 234.099 308.204 230.831C308.204 227.564 310.853 224.915 314.121 224.915H377.833C381.101 224.915 383.749 227.564 383.749 230.831C383.749 234.099 381.101 236.749 377.833 236.749Z" fill="#FFD15C"/>
<path d="M283.508 236.749H270.645C267.377 236.749 264.728 234.099 264.728 230.831C264.728 227.564 267.377 224.915 270.645 224.915H283.508C286.776 224.915 289.425 227.564 289.425 230.831C289.425 234.099 286.776 236.749 283.508 236.749Z" fill="#FFD15C"/>
<path d="M329.351 353.38C327.837 353.38 326.322 352.803 325.168 351.647L280.283 306.761C277.972 304.451 277.972 300.705 280.283 298.395C282.592 296.084 286.341 296.084 288.65 298.395L333.534 343.28C335.845 345.59 335.845 349.337 333.534 351.647C332.38 352.802 330.864 353.38 329.351 353.38Z" fill="#FFD15C"/>
<path d="M262.598 286.626C261.085 286.626 259.569 286.049 258.415 284.893L249.398 275.876C247.087 273.566 247.087 269.819 249.398 267.509C251.707 265.198 255.456 265.198 257.764 267.509L266.781 276.527C269.092 278.836 269.092 282.583 266.781 284.893C265.626 286.049 264.112 286.626 262.598 286.626Z" fill="#FFD15C"/>
<path d="M212.72 401.861C209.453 401.861 206.803 399.213 206.803 395.944V332.233C206.803 328.964 209.453 326.316 212.72 326.316C215.987 326.316 218.637 328.964 218.637 332.233V395.944C218.637 399.213 215.987 401.861 212.72 401.861Z" fill="#FFD15C"/>
<path d="M212.72 307.536C209.453 307.536 206.803 304.888 206.803 301.619V288.756C206.803 285.488 209.453 282.84 212.72 282.84C215.987 282.84 218.637 285.488 218.637 288.756V301.619C218.637 304.888 215.987 307.536 212.72 307.536Z" fill="#FFD15C"/>
<path d="M95.6975 353.38C94.1746 353.38 92.6516 352.796 91.4955 351.629C89.195 349.308 89.2116 345.562 91.5333 343.263L136.82 298.377C139.139 296.077 142.887 296.092 145.188 298.414C147.488 300.734 147.471 304.481 145.15 306.78L99.8629 351.666C98.7092 352.809 97.2039 353.38 95.6975 353.38Z" fill="#FFD15C"/>
<path d="M162.853 286.626C161.339 286.626 159.827 286.05 158.672 284.896C156.359 282.588 156.357 278.841 158.667 276.529L167.672 267.512C169.981 265.201 173.728 265.197 176.04 267.506C178.352 269.815 178.354 273.561 176.045 275.873L167.039 284.89C165.884 286.048 164.368 286.626 162.853 286.626Z" fill="#FFD15C"/>
<path d="M110.927 236.749H47.6062C44.339 236.749 41.6895 234.099 41.6895 230.831C41.6895 227.564 44.339 224.915 47.6062 224.915H110.927C114.194 224.915 116.844 227.564 116.844 230.831C116.844 234.099 114.196 236.749 110.927 236.749Z" fill="#FFD15C"/>
<path d="M154.807 236.749H141.944C138.677 236.749 136.027 234.099 136.027 230.831C136.027 227.564 138.677 224.915 141.944 224.915H154.807C158.074 224.915 160.724 227.564 160.724 230.831C160.724 234.099 158.074 236.749 154.807 236.749Z" fill="#FFD15C"/>
<path d="M140.984 165.014C139.47 165.014 137.956 164.436 136.8 163.281L91.5132 117.994C89.2021 115.683 89.2021 111.937 91.5132 109.627C93.8243 107.317 97.5696 107.317 99.8807 109.627L145.167 154.914C147.478 157.225 147.478 160.971 145.167 163.281C144.012 164.436 142.499 165.014 140.984 165.014Z" fill="#FFD15C"/>
<path d="M171.859 195.887C170.344 195.887 168.831 195.31 167.675 194.155L158.669 185.149C156.358 182.838 156.358 179.093 158.669 176.782C160.979 174.472 164.726 174.472 167.037 176.782L176.042 185.787C178.353 188.098 178.353 191.844 176.042 194.155C174.887 195.309 173.374 195.887 171.859 195.887Z" fill="#FFD15C"/>
</g>
</svg>
