<svg width="335" height="128" viewBox="0 0 335 128" fill="none" xmlns="http://www.w3.org/2000/svg">
<path d="M35.7263 76.646C37.8306 83.3036 34.1391 90.41 27.4824 92.5189C20.8211 94.6283 13.7139 90.9373 11.6045 84.276C9.50016 77.6138 13.1912 70.5069 19.8483 68.4027C26.5105 66.2932 33.6169 69.9843 35.7263 76.646Z" fill="#B0B7DC"/>
<path d="M11.6998 84.5528C12.3456 79.8641 15.6054 75.7321 20.4158 74.2117C26.9837 72.132 33.9806 75.6926 36.198 82.1774C36.4466 80.3766 36.3109 78.4945 35.7263 76.646C33.6169 69.9843 26.5101 66.2932 19.8484 68.4026C13.1908 70.507 9.49973 77.6138 11.6045 84.276C11.6343 84.3699 11.6684 84.4605 11.6998 84.5528Z" fill="#9AA2C1"/>
<path d="M81.6699 69.0443C83.7789 75.7014 80.0878 82.8082 73.4265 84.9171C66.7647 87.0265 59.6579 83.3355 57.5532 76.6737C55.4437 70.012 59.1348 62.9052 65.797 60.8004C72.4537 58.6919 79.5651 62.3825 81.6699 69.0443Z" fill="#FFD15C"/>
<path d="M67.7716 66.6618C73.3327 64.9002 79.2084 67.1874 82.2195 71.8709C82.1449 70.9301 81.9668 69.9825 81.6694 69.0443C79.5651 62.3825 72.4532 58.6915 65.7965 60.8004C59.1343 62.9052 55.4433 70.012 57.5527 76.6738C57.8997 77.7708 58.3841 78.7857 58.9778 79.709C58.5215 73.9713 62.0478 68.4702 67.7716 66.6618Z" fill="#E5B64E"/>
<path d="M126.551 57.3625C128.66 64.0196 124.969 71.126 118.307 73.2354C111.65 75.3443 104.543 71.6533 102.434 64.9915C100.325 58.3298 104.016 51.2229 110.678 49.1182C117.339 47.0088 124.446 50.7003 126.551 57.3625Z" fill="#F34E2D"/>
<path d="M170.374 41.5942C172.478 48.2565 168.787 55.3638 162.13 57.4722C155.468 59.577 148.361 55.8859 146.252 49.2288C144.148 42.5666 147.839 35.4598 154.496 33.3508C161.158 31.2461 168.265 34.9371 170.374 41.5942Z" fill="#B0B7DC"/>
<path d="M156.596 39.9934C162.106 38.2522 167.917 40.4788 170.957 45.067C170.925 43.9148 170.738 42.7484 170.374 41.5947C168.265 34.9376 161.158 31.2465 154.496 33.3513C147.839 35.4603 144.147 42.5671 146.252 49.2293C146.617 50.3802 147.134 51.4401 147.769 52.3991C147.618 46.8981 151.091 41.7368 156.596 39.9934Z" fill="#9AA2C1"/>
<path d="M99.139 -2.09305C102.509 4.02942 100.282 11.7179 94.1646 15.0879C88.0421 18.4583 80.3541 16.2313 76.9837 10.1135C73.6137 3.99565 75.8402 -3.69744 81.9581 -7.06744C88.0759 -10.4374 95.7695 -8.21047 99.139 -2.09305Z" fill="#EF3E5C"/>
<path d="M81.8946 14.919C78.5246 8.80117 80.7511 1.10808 86.869 -2.26192C90.7925 -4.42317 95.3626 -4.27913 99.0262 -2.28635C95.6011 -8.25528 88.0104 -10.4007 81.9582 -7.067C75.8403 -3.697 73.6138 3.99609 76.9838 10.1139C78.193 12.3086 79.9595 13.9996 82.0081 15.1141C81.9708 15.0481 81.9309 14.9851 81.8946 14.919Z" fill="#D8395B"/>
<path d="M57.4136 18.1497C60.7836 24.2675 58.557 31.9606 52.4345 35.3311C46.3167 38.7011 38.6232 36.4699 35.2531 30.3521C31.8827 24.2343 34.1143 16.5407 40.2322 13.1707C46.3495 9.80072 54.0426 12.0273 57.4136 18.1497Z" fill="#8EAA39"/>
<path d="M39.135 34.4876C35.765 28.3698 37.9962 20.6763 44.114 17.3063C48.397 14.9472 53.4502 15.3334 57.2537 17.8768C53.806 11.9644 46.2564 9.85234 40.2318 13.1712C34.1139 16.5412 31.8823 24.2348 35.2527 30.3526C36.2627 32.1871 37.6641 33.6687 39.2928 34.7579C39.24 34.6677 39.1856 34.5795 39.135 34.4876Z" fill="#80962F"/>
<path d="M13.8434 34.5941C17.2143 40.7165 14.9873 48.405 8.86995 51.7796C2.74748 55.1501 -4.94607 52.9189 -8.31607 46.801C-11.6814 40.6828 -9.45535 32.9897 -3.33751 29.6197C2.78033 26.2497 10.4734 28.4763 13.8434 34.5941Z" fill="#FFD15C"/>
<path d="M-3.58272 51.1966C-6.9481 45.0783 -4.72154 37.3852 1.3963 34.0152C5.28396 31.8738 9.80546 31.995 13.4519 33.9357C9.90712 28.3217 2.55499 26.3741 -3.33746 29.6202C-9.4553 32.9902 -11.6814 40.6832 -8.31602 46.8015C-7.08735 49.0321 -5.28249 50.7432 -3.18999 51.8572C-3.32604 51.6419 -3.45823 51.4229 -3.58272 51.1966Z" fill="#E5B64E"/>
<path d="M-19.5411 35.2003C-20.2663 35.2711 -21.0131 35.0014 -21.5268 34.4092C-22.0505 33.8054 -22.2305 32.9632 -21.9985 32.1981C-21.6121 30.9233 -20.5608 30.6149 -19.4478 30.2883C-18.8097 30.1012 -17.8713 29.8435 -16.6556 29.5102C53.8525 10.1725 102.301 -20.349 130.529 -42.5477C131.541 -43.3422 133.002 -43.1675 133.796 -42.1572C134.591 -41.1473 134.416 -39.6847 133.406 -38.8903C104.841 -16.4259 55.8328 14.4546 -15.4248 33.9973C-16.784 34.3699 -18.077 34.7249 -18.5879 34.8888C-18.8849 35.0647 -19.2109 35.168 -19.5411 35.2003Z" fill="#415A6B"/>
<path d="M112.542 56.234C118.196 54.4437 124.168 56.8327 127.133 61.6694C127.189 60.2493 127.005 58.795 126.551 57.3625C124.446 50.7003 117.339 47.0088 110.678 49.1182C104.016 51.2229 100.325 58.3298 102.434 64.9915C102.753 65.9982 103.187 66.9353 103.715 67.7972C103.917 62.6171 107.314 57.8855 112.542 56.234Z" fill="#E04127"/>
<path d="M19.9752 69.251C15.7582 69.6629 11.4839 70.0239 7.12916 70.3319C5.72699 70.4315 4.39359 70.5267 3.86129 70.5862C2.82033 70.952 1.6365 70.53 1.07295 69.5374C0.678773 68.8428 0.668104 67.9822 1.04534 67.2782C1.67455 66.105 2.76406 66.0065 3.91747 65.9065C4.5789 65.8479 5.54694 65.7791 6.80107 65.6907C79.7285 60.5278 133.221 40.0786 165.255 23.8298C166.401 23.249 167.801 23.7064 168.383 24.852C168.964 25.9977 168.506 27.3982 167.36 27.9791C136.858 43.4508 87.1365 62.6883 19.9752 69.251Z" fill="#415A6B"/>
<path d="M273.367 -25.4334C277.694 -19.9452 276.756 -11.9959 271.272 -7.66996C265.784 -3.34283 257.835 -4.28147 253.509 -9.76508C249.183 -15.2488 250.12 -23.2026 255.604 -27.5285C261.088 -31.8544 269.042 -30.9168 273.367 -25.4334Z" fill="#EF3E5C"/>
<path d="M235.518 1.36602C239.844 6.84975 238.907 14.8035 233.418 19.1307C227.935 23.4566 219.98 22.5148 215.654 17.0311C211.327 11.5475 212.27 3.59235 217.753 -0.733584C223.237 -5.05939 231.19 -4.12207 235.518 1.36602Z" fill="#8EAA39"/>
<path d="M220.16 20.4755C215.834 14.9918 216.776 7.03678 222.26 2.71085C226.099 -0.317421 231.147 -0.763527 235.315 1.12303C230.947 -4.14541 223.153 -4.99321 217.753 -0.733015C212.269 3.59292 211.327 11.548 215.653 17.0316C216.95 18.6761 218.575 19.9084 220.36 20.7163C220.293 20.6359 220.225 20.5578 220.16 20.4755Z" fill="#80962F"/>
<path d="M195.227 24.7203C199.555 30.2084 198.616 38.1576 193.134 42.4881C187.645 46.8152 179.69 45.8734 175.364 40.3897C171.043 34.9047 171.98 26.9511 177.464 22.6252C182.947 18.2992 190.901 19.2365 195.227 24.7203Z" fill="#FFD15C"/>
<path d="M180.753 43.9512C176.432 38.4663 177.369 30.5125 182.853 26.1865C186.338 23.4377 190.818 22.8172 194.733 24.1349C190.317 19.1767 182.745 18.4588 177.464 22.6256C171.98 26.9515 171.043 34.9052 175.365 40.3901C176.942 42.3895 179.002 43.7821 181.249 44.5386C181.08 44.3484 180.913 44.154 180.753 43.9512Z" fill="#E5B64E"/>
<path d="M160.799 31.3107C160.089 31.5118 159.298 31.3869 158.685 30.9071C158.059 30.4177 157.735 29.6347 157.835 28.8511C158.001 27.5454 158.995 27.0546 160.048 26.5348C160.651 26.2369 161.542 25.8158 162.696 25.2708C229.62 -6.34652 272.644 -44.7685 296.952 -71.4326C297.822 -72.3871 299.309 -72.4849 300.274 -71.6511C301.239 -70.8179 301.316 -69.369 300.446 -68.4148C275.849 -41.4317 232.33 -2.55976 164.694 29.3931C163.404 30.0024 162.176 30.5826 161.695 30.8348C161.43 31.0594 161.123 31.2191 160.799 31.3107Z" fill="#415A6B"/>
</svg>
