<svg width="19" height="19" viewBox="0 0 19 19" fill="none" xmlns="http://www.w3.org/2000/svg">
<path d="M14.2457 0C16.8731 0 19 2.38451 19 5.32296C19 10.6459 14.2457 13.677 9.49727 19C4.74886 13.677 0 10.6459 0 5.32296C0 2.38451 2.12691 0 4.74886 0C7.12284 0 8.31028 1.33074 9.49727 3.99222C10.6843 1.33074 11.8717 0 14.2457 0Z" fill="#EF3E5C"/>
<path d="M1.42443 6.08425C1.42443 3.14575 3.55134 0.761287 6.17329 0.761287C6.65729 0.761287 7.09129 0.81756 7.48673 0.928203C6.76104 0.310035 5.89295 0 4.74886 0C2.12691 0 0 2.38451 0 5.32296C0 10.6459 4.74886 13.677 9.49727 19C9.61706 18.8657 9.7368 18.7333 9.85655 18.6018C5.48849 13.9715 1.42443 11.0084 1.42443 6.08425Z" fill="#E42A53"/>
<path d="M16.0527 5.13035C16.7784 5.90719 16.6476 7.30566 15.7606 8.25459C14.8735 9.204 13.5658 9.34395 12.84 8.56716C12.1139 7.79085 12.2447 6.39184 13.1318 5.44292C14.0193 4.49399 15.3266 4.35404 16.0527 5.13035Z" fill="#FFD15C"/>
<path d="M13.2635 8.87598C12.5374 8.09967 12.6682 6.70071 13.5552 5.75178C14.2817 4.97499 15.2894 4.74073 16.0294 5.10694C15.299 4.35765 14.01 4.50389 13.1318 5.44292C12.2447 6.39185 12.1139 7.79086 12.84 8.56716C12.9719 8.70828 13.1231 8.81873 13.2873 8.89997C13.2795 8.89188 13.2712 8.88432 13.2635 8.87598Z" fill="#EFBE52"/>
<path d="M6.28114 5.44292C7.16819 6.39184 7.29901 7.79085 6.57287 8.56716C5.84719 9.34395 4.53941 9.204 3.65236 8.25459C2.76531 7.30566 2.63448 5.90714 3.36017 5.13035C4.08631 4.35404 5.39364 4.49399 6.28114 5.44292Z" fill="#FFD15C"/>
<path d="M4.17597 8.25461C3.28892 7.30568 3.1581 5.90716 3.88378 5.13036C4.13846 4.85812 4.46474 4.69901 4.8192 4.64751C4.26964 4.57227 3.73673 4.72778 3.36017 5.13036C2.63448 5.9072 2.76531 7.30568 3.65236 8.25461C4.22826 8.87102 4.98138 9.14575 5.63755 9.05037C5.12743 8.98049 4.603 8.71166 4.17597 8.25461Z" fill="#EFBE52"/>
<path d="M15.393 5.184C15.7964 5.61555 15.7964 6.31476 15.393 6.74637C14.99 7.17743 14.3359 7.17743 13.9329 6.74637C13.5295 6.31476 13.5295 5.61555 13.9329 5.184C14.3359 4.75245 14.99 4.75245 15.393 5.184Z" fill="#743629"/>
<path d="M14.1601 5.67162C14.5631 5.24002 15.2172 5.24002 15.6202 5.67162C15.6384 5.69117 15.655 5.71185 15.6716 5.73248C15.6313 5.53157 15.5389 5.34018 15.3929 5.18399C14.99 4.75239 14.3359 4.75239 13.9329 5.18399C13.5478 5.59594 13.5313 6.25136 13.8815 6.68545C13.8104 6.33124 13.9028 5.94703 14.1601 5.67162Z" fill="#662C22"/>
<path d="M5.40468 5.13034C5.80809 5.56194 5.80809 6.26115 5.40468 6.6927C5.00172 7.12381 4.3476 7.12381 3.94465 6.6927C3.54124 6.26115 3.54124 5.56194 3.94465 5.13034C4.3476 4.69927 5.00172 4.69927 5.40468 5.13034Z" fill="#743629"/>
<path d="M4.32449 5.52044C4.65775 5.16393 5.16236 5.10318 5.55506 5.33636C5.51326 5.26322 5.46385 5.19363 5.40468 5.13034C5.00172 4.69927 4.3476 4.69927 3.94465 5.13034C3.54124 5.56194 3.54124 6.26115 3.94465 6.6927C4.01435 6.76731 4.09197 6.82807 4.17411 6.87683C3.93084 6.45137 3.98025 5.8887 4.32449 5.52044Z" fill="#662C22"/>
<path d="M9.70634 10.8254H12.3911C12.3911 12.401 11.1791 13.6975 9.70634 13.6975C8.23354 13.6975 7.02148 12.4009 7.02148 10.8254H9.70634Z" fill="#FFC592"/>
<path d="M7.58366 11.3131H10.2685H12.3511C12.3769 11.1543 12.3912 10.9916 12.3912 10.8254H9.70634H7.02148C7.02148 11.8605 7.5446 12.775 8.32106 13.2808C7.86523 12.7651 7.58366 12.0717 7.58366 11.3131Z" fill="#EFA873"/>
<path d="M17.1653 17.4762H10.9701C10.8442 17.4762 10.7422 17.367 10.7422 17.2323C10.7422 17.0977 10.8442 16.9885 10.9701 16.9885H17.1653C17.2912 16.9885 17.3932 17.0977 17.3932 17.2323C17.3932 17.367 17.2912 17.4762 17.1653 17.4762Z" fill="#EF3E5C"/>
<path d="M15.5617 15.2672H13.0834C12.9575 15.2672 12.8555 15.1581 12.8555 15.0234C12.8555 14.8887 12.9575 14.7796 13.0834 14.7796H15.5617C15.6876 14.7796 15.7897 14.8887 15.7897 15.0234C15.7897 15.1581 15.6876 15.2672 15.5617 15.2672Z" fill="#EF3E5C"/>
<path d="M8.12127 17.4762H1.51307C1.38722 17.4762 1.28516 17.367 1.28516 17.2323C1.28516 17.0977 1.38722 16.9885 1.51307 16.9885H8.12127C8.24713 16.9885 8.34919 17.0977 8.34919 17.2323C8.34919 17.367 8.24713 17.4762 8.12127 17.4762Z" fill="#E42A53"/>
<path d="M5.91673 15.2672H3.43837C3.31251 15.2672 3.21045 15.1581 3.21045 15.0234C3.21045 14.8887 3.31251 14.7796 3.43837 14.7796H5.91673C6.04258 14.7796 6.14464 14.8887 6.14464 15.0234C6.14464 15.1581 6.04258 15.2672 5.91673 15.2672Z" fill="#E42A53"/>
</svg>
