<svg width="46" height="50" viewBox="0 0 46 50" fill="none" xmlns="http://www.w3.org/2000/svg">
<path d="M20.2413 12.1996C22.4128 12.1996 24.1722 13.987 24.1722 16.1905C24.1722 20.1814 20.2413 22.4543 16.3144 26.4439C12.3875 22.4543 8.46066 20.1814 8.46066 16.1905C8.46066 13.987 10.2187 12.1996 12.3875 12.1996C14.351 12.1996 15.3327 13.1973 16.3144 15.1928C17.2961 13.1973 18.2778 12.1996 20.2413 12.1996Z" fill="#EF3E5C"/>
<path d="M10.2734 16.3406C10.2734 14.3146 11.7598 12.6416 13.685 12.385C13.3031 12.2616 12.8757 12.1997 12.3875 12.1997C10.2187 12.1997 8.46066 13.9871 8.46066 16.1906C8.46066 20.1815 12.3875 22.4544 16.3144 26.444C16.5909 26.1631 16.8674 25.8914 17.1425 25.6262C13.57 22.2123 10.2734 19.9971 10.2734 16.3406Z" fill="#D63255"/>
<path d="M36.2583 18.1299C36.2583 21.7393 35.2045 25.1007 33.3865 27.9258C31.351 31.0909 28.3565 33.5812 24.8151 34.9871C22.7463 35.8074 20.4907 36.2596 18.1285 36.2596C14.9992 36.2596 12.0554 35.4674 9.4864 34.0707L0 36.2596L3.03319 28.1711C1.11644 25.2966 0 21.8433 0 18.1298C0 8.11786 8.11652 0 18.1285 0C28.1417 0.000133386 36.2583 8.11799 36.2583 18.1299ZM24.1722 16.1905C24.1722 13.987 22.4129 12.1996 20.2413 12.1996C18.2779 12.1996 17.2961 13.1973 16.3144 15.1928C15.3327 13.1973 14.351 12.1996 12.3875 12.1996C10.2187 12.1996 8.46066 13.987 8.46066 16.1905C8.46066 20.1814 12.3875 22.4543 16.3144 26.4439C20.2413 22.4543 24.1722 20.1814 24.1722 16.1905Z" fill="#FFECB2"/>
<path d="M2.05402 35.786L4.90927 28.1722C2.99252 25.2978 1.87608 21.8445 1.87608 18.1309C1.87608 8.43187 9.49321 0.510228 19.0718 0.0247034C18.7594 0.00869706 18.445 0.000427246 18.1286 0.000427246C8.11667 0.000427246 0.000144958 8.11829 0.000144958 18.1302C0.000144958 21.8437 1.11658 25.297 3.03334 28.1716L0.000144958 36.26L2.05402 35.786Z" fill="#E8D49C"/>
<path d="M44.108 44.7017L45.9275 49.5543L40.2359 48.2418C38.6939 49.0794 36.928 49.5543 35.0499 49.5543C29.0422 49.5543 24.1722 44.6844 24.1722 38.6767C24.1722 37.3815 24.3989 36.1397 24.8151 34.9872C28.3565 33.5813 31.351 31.091 33.3865 27.9259C33.9293 27.8432 34.4842 27.7992 35.0499 27.7992C41.0576 27.7992 45.9275 32.6691 45.9275 38.6768C45.9274 40.9055 45.2578 42.977 44.108 44.7017Z" fill="#EF3E5C"/>
<path d="M26.0476 39.6771C26.0476 38.3819 26.2743 37.1401 26.6905 35.9876C30.2319 34.5817 33.2264 32.0914 35.2619 28.9263C35.8047 28.8436 36.3596 28.7996 36.9253 28.7996C38.3959 28.7996 39.7976 29.093 41.0772 29.6219C39.3517 28.4711 37.2796 27.7992 35.0498 27.7992C34.4842 27.7992 33.9293 27.8432 33.3863 27.9259C31.3509 31.091 28.3563 33.5813 24.815 34.9872C24.3988 36.1398 24.172 37.3815 24.172 38.6767C24.172 43.2137 26.9503 47.1001 30.8977 48.7318C27.9742 46.782 26.0476 43.4549 26.0476 39.6771Z" fill="#D63255"/>
<path d="M18.1285 32.0927C17.7602 32.0927 17.4615 31.7942 17.4615 31.4258C17.4615 31.0574 17.7602 30.7589 18.1285 30.7589C25.0921 30.7589 30.7574 25.0936 30.7574 18.1299C30.7574 11.167 25.0921 5.50228 18.1285 5.50228C17.7602 5.50228 17.4615 5.20363 17.4615 4.83536C17.4615 4.46708 17.7602 4.16843 18.1285 4.16843C25.8276 4.16843 32.0913 10.4316 32.0913 18.1299C32.0913 25.8291 25.8276 32.0927 18.1285 32.0927Z" fill="#E8D49C"/>
<path d="M19.3383 42.9705H3.62542C3.25714 42.9705 2.95849 42.672 2.95849 42.3036C2.95849 41.9351 3.25714 41.6366 3.62542 41.6366H19.3383C19.7065 41.6366 20.0052 41.9351 20.0052 42.3036C20.0052 42.672 19.7065 42.9705 19.3383 42.9705Z" fill="#FFECB2"/>
<path d="M21.7552 46.5958H15.7115C15.3432 46.5958 15.0446 46.2973 15.0446 45.9289C15.0446 45.5604 15.3432 45.2619 15.7115 45.2619H21.7552C22.1235 45.2619 22.4221 45.5604 22.4221 45.9289C22.4221 46.2973 22.1235 46.5958 21.7552 46.5958Z" fill="#EF3E5C"/>
</svg>
