<svg width="43" height="48" viewBox="0 0 43 48" fill="none" xmlns="http://www.w3.org/2000/svg">
<path d="M2.13839 0.590073C3.3197 0.590073 4.27666 1.54834 4.27666 2.72847C4.27666 3.90978 3.3197 4.86804 2.13839 4.86804C0.956963 4.86804 -3.8147e-06 3.90978 -3.8147e-06 2.72847C-3.8147e-06 1.54834 0.957081 0.590073 2.13839 0.590073Z" fill="#EF3E5C"/>
<path d="M0.78667 3.79766C0.78667 2.61753 1.74375 1.65927 2.92506 1.65927C3.38968 1.65927 3.81807 1.80903 4.1688 2.06063C3.88805 1.2074 3.08603 0.590073 2.13839 0.590073C0.956963 0.590073 -3.8147e-06 1.54834 -3.8147e-06 2.72847C-3.8147e-06 3.44539 0.353681 4.07853 0.894888 4.4668C0.825496 4.25614 0.78667 4.03156 0.78667 3.79766Z" fill="#E42A53"/>
<path d="M24.3284 17.165C25.9498 17.165 27.2681 18.4832 27.2681 20.1035C27.2681 23.0432 24.3284 25.9888 21.3827 28.9285C18.4443 25.9888 15.5045 23.0432 15.5045 20.1035C15.5045 18.4832 16.8227 17.165 18.4442 17.165C19.9134 17.165 20.6475 17.9002 21.3826 19.3695C22.1167 17.9002 22.859 17.165 24.3284 17.165Z" fill="#EF3E5C"/>
<path d="M17.078 20.6937C17.078 19.0734 18.3962 17.7552 20.0177 17.7552C20.0946 17.7552 20.1685 17.7583 20.2416 17.7624C19.7718 17.3655 19.2077 17.165 18.4442 17.165C16.8227 17.165 15.5045 18.4832 15.5045 20.1035C15.5045 23.0432 18.4442 25.9888 21.3828 28.9285C21.5479 28.7636 21.7131 28.5988 21.8776 28.4339C19.3392 25.8545 17.078 23.2718 17.078 20.6937Z" fill="#E42A53"/>
<path d="M21.3863 10.214C28.473 10.214 34.2189 15.9601 34.2189 23.0467C34.2189 30.1334 28.473 35.8782 21.3863 35.8782C14.2996 35.8782 8.55475 30.1333 8.55475 23.0467C8.55475 15.9601 14.2996 10.214 21.3863 10.214ZM27.2681 20.1035C27.2681 18.4832 25.9498 17.165 24.3284 17.165C22.8591 17.165 22.1168 17.9002 21.3828 19.3695C20.6476 17.9002 19.9135 17.165 18.4443 17.165C16.8229 17.165 15.5046 18.4832 15.5046 20.1035C15.5046 23.0432 18.4443 25.9888 21.3829 28.9285C24.3284 25.9888 27.2681 23.0432 27.2681 20.1035Z" fill="#FFECB2"/>
<path d="M9.62335 25.1711C9.62335 18.0844 15.3683 12.3384 22.4549 12.3384C27.0465 12.3384 31.0747 14.7513 33.3424 18.3777C31.4747 13.5993 26.8255 10.214 21.3862 10.214C14.2995 10.214 8.55463 15.9601 8.55463 23.0467C8.55463 25.542 9.26767 27.8704 10.5 29.8406C9.93432 28.3935 9.62335 26.8187 9.62335 25.1711Z" fill="#EAD496"/>
<path d="M8.55475 23.0467C8.55475 30.1334 14.2997 35.8782 21.3863 35.8782C28.4728 35.8782 34.2189 30.1333 34.2189 23.0467C34.2189 15.9601 28.473 10.214 21.3863 10.214C14.2996 10.214 8.55475 15.9601 8.55475 23.0467ZM-3.8147e-06 23.0467C-3.8147e-06 17.1414 2.39318 11.7942 6.26412 7.92338C10.1338 4.05374 15.4797 1.65926 21.3863 1.65926C27.2928 1.65926 32.6388 4.05374 36.5085 7.92338V7.92456C40.3793 11.7954 42.7726 17.1414 42.7726 23.0467C42.7726 28.9521 40.3793 34.2981 36.5085 38.1677V38.1689C32.6388 42.0397 27.2928 44.433 21.3863 44.433C15.4797 44.433 10.1338 42.0397 6.26412 38.1689C2.3933 34.2993 -3.8147e-06 28.9521 -3.8147e-06 23.0467Z" fill="#F78F4B"/>
<path d="M1.54833 25.171C1.54833 19.2656 3.94151 13.9184 7.81245 10.0476C11.6821 6.17797 17.0281 3.78349 22.9346 3.78349C28.8412 3.78349 34.1871 6.17797 38.0568 10.0476V10.0488C38.5347 10.5267 38.9899 11.0274 39.4213 11.5486C38.5827 10.2362 37.6049 9.02114 36.5085 7.92456V7.92338C32.6388 4.05374 27.2928 1.65926 21.3863 1.65926C15.4797 1.65926 10.1338 4.05374 6.26412 7.92338C2.39318 11.7942 -3.8147e-06 17.1414 -3.8147e-06 23.0467C-3.8147e-06 28.2225 1.83875 32.9695 4.8993 36.6688C2.77778 33.3484 1.54833 29.4031 1.54833 25.171Z" fill="#E27940"/>
<path d="M21.3863 2.48547C21.0813 2.48547 20.8342 2.73259 20.8342 3.03754V6.03955C20.8342 6.34438 21.0813 6.59161 21.3863 6.59161C21.6912 6.59161 21.9384 6.34438 21.9384 6.03955V3.03742C21.9384 2.73259 21.6912 2.48547 21.3863 2.48547Z" fill="#E27940"/>
<path d="M21.3863 39.502C21.0813 39.502 20.8342 39.7491 20.8342 40.054V43.055C20.8342 43.3598 21.0813 43.6071 21.3863 43.6071C21.6912 43.6071 21.9384 43.3598 21.9384 43.055V40.054C21.9384 39.749 21.6912 39.502 21.3863 39.502Z" fill="#E27940"/>
<path d="M35.534 8.34587C35.3744 8.34587 35.2307 8.41385 35.13 8.52242L33.0218 10.6295C32.8062 10.845 32.806 11.1946 33.0215 11.4103C33.1294 11.5182 33.2705 11.5721 33.412 11.5721C33.5533 11.5721 33.6946 11.5183 33.8023 11.4105L35.9243 9.28962C35.9413 9.27263 35.957 9.25469 35.9714 9.23581C36.0436 9.14246 36.0866 9.02527 36.0866 8.89805C36.0864 8.59299 35.839 8.34587 35.534 8.34587Z" fill="#E27940"/>
<path d="M8.97027 34.6821L6.84828 36.804C6.63267 37.0196 6.63267 37.3691 6.84828 37.5846C6.95615 37.6924 7.09729 37.7463 7.23867 37.7463C7.38005 37.7463 7.52131 37.6924 7.62906 37.5846L9.75105 35.4626C9.96665 35.2472 9.96665 34.8976 9.75105 34.6821C9.53532 34.4665 9.18588 34.4665 8.97027 34.6821Z" fill="#E27940"/>
<path d="M41.3944 22.4947H38.3936C38.0886 22.4947 37.8415 22.7419 37.8415 23.0467C37.8415 23.3516 38.0886 23.5988 38.3936 23.5988H41.3944C41.6994 23.5988 41.9465 23.3517 41.9465 23.0467C41.9465 22.7419 41.6994 22.4947 41.3944 22.4947Z" fill="#E27940"/>
<path d="M4.3791 22.4947H1.37815C1.0732 22.4947 0.826084 22.7419 0.826084 23.0467C0.826084 23.3516 1.0732 23.5988 1.37815 23.5988H4.3791C4.68392 23.5988 4.93116 23.3517 4.93116 23.0467C4.93104 22.7419 4.68392 22.4947 4.3791 22.4947Z" fill="#E27940"/>
<path d="M7.62894 8.50755C7.41333 8.29206 7.06389 8.29206 6.84828 8.50755C6.63267 8.72316 6.63267 9.07271 6.84828 9.28832L8.97027 11.4103C9.07802 11.5181 9.21928 11.572 9.36066 11.572C9.50204 11.572 9.6433 11.5181 9.75105 11.4103C9.96665 11.1947 9.96665 10.8451 9.75105 10.6295L7.62894 8.50755Z" fill="#E27940"/>
<path d="M35.9242 36.8029L33.8022 34.682C33.5868 34.4664 33.237 34.4665 33.0215 34.6822C32.806 34.8978 32.8062 35.2473 33.0218 35.4628L35.1238 37.5637C35.2248 37.6758 35.3712 37.7464 35.5341 37.7464H35.5352C35.8402 37.7464 36.0867 37.4993 36.0867 37.1944C36.0867 37.1034 36.0646 37.0175 36.0254 36.9416C35.9994 36.8909 35.9654 36.844 35.9242 36.8029Z" fill="#E27940"/>
<path d="M35.9184 43.4193C37.0997 43.4193 38.0567 44.3776 38.0567 45.5577C38.0567 46.739 37.0997 47.6973 35.9184 47.6973C34.7371 47.6973 33.78 46.739 33.78 45.5577C33.78 44.3776 34.7371 43.4193 35.9184 43.4193Z" fill="#EF3E5C"/>
<path d="M34.5668 46.6269C34.5668 45.4468 35.5238 44.4886 36.7051 44.4886C37.1697 44.4886 37.5982 44.6384 37.9488 44.8899C37.6681 44.0366 36.866 43.4193 35.9184 43.4193C34.7371 43.4193 33.78 44.3776 33.78 45.5577C33.78 46.2746 34.1337 46.9078 34.6749 47.2959C34.6055 47.0852 34.5668 46.8608 34.5668 46.6269Z" fill="#E42A53"/>
<path d="M38.4957 1.18013H32.0793C31.7534 1.18013 31.4893 0.915898 31.4893 0.590064C31.4893 0.264231 31.7534 0 32.0793 0H38.4957C38.8216 0 39.0857 0.264231 39.0857 0.590064C39.0857 0.915898 38.8216 1.18013 38.4957 1.18013Z" fill="#FFECB2"/>
<path d="M8.55475 45.0231H2.13839C1.81244 45.0231 1.54832 44.759 1.54832 44.433C1.54832 44.1071 1.81244 43.843 2.13839 43.843H8.55463C8.88058 43.843 9.1447 44.1071 9.1447 44.433C9.1447 44.759 8.88058 45.0231 8.55475 45.0231Z" fill="#FFECB2"/>
</svg>
