<svg width="45" height="46" viewBox="0 0 45 46" fill="none" xmlns="http://www.w3.org/2000/svg">
<path d="M6.94073 7.18058C2.97251 11.1622 0.519161 16.6565 0.519161 22.7219C0.519161 34.8797 10.3752 44.7356 22.5328 44.7356C34.6905 44.7356 44.5464 34.8797 44.5464 22.7219C44.5464 10.5631 34.6905 0.707207 22.5328 0.707207C16.4406 0.707207 10.9265 3.18235 6.94073 7.18058ZM10.7292 11.1113C13.7319 8.05789 17.9108 6.16416 22.5329 6.16416C31.6777 6.16416 39.0906 13.5771 39.0906 22.7219C39.0906 31.8657 31.6777 39.2786 22.5329 39.2786C13.3882 39.2786 5.97518 31.8657 5.97518 22.7219C5.97518 18.1993 7.78897 14.0994 10.7292 11.1113Z" fill="#BE0000"/>
<path d="M21.4947 40.9724C12.3499 40.9724 4.93694 33.5595 4.93694 24.4157C4.93694 20.8936 6.03736 17.6279 7.91293 14.944C6.67639 17.263 5.97517 19.9107 5.97517 22.7218C5.97517 31.8656 13.3882 39.2785 22.5329 39.2785C28.155 39.2785 33.1218 36.476 36.1146 32.1925C33.3298 37.4163 27.828 40.9724 21.4947 40.9724Z" fill="#950000"/>
<path d="M43.5083 24.4158C43.5083 12.257 33.6524 2.40108 21.4947 2.40108C15.4023 2.40108 9.88827 4.87623 5.90249 8.87446C4.92386 9.85642 4.03783 10.9308 3.25749 12.0826C4.25492 10.2788 5.49686 8.62913 6.94073 7.18059C10.9265 3.18235 16.4406 0.707207 22.5329 0.707207C34.6906 0.707207 44.5465 10.5631 44.5465 22.7219C44.5465 27.2918 43.1538 31.5363 40.77 35.0545C42.5142 31.9009 43.5083 28.2747 43.5083 24.4158Z" fill="#950000"/>
<path d="M10.7292 11.1113C7.78907 14.0994 5.97517 18.1994 5.97517 22.7219C5.97517 31.8657 13.3882 39.2786 22.5329 39.2786C31.6777 39.2786 39.0906 31.8657 39.0906 22.7219C39.0906 13.5771 31.6777 6.16416 22.5329 6.16416C17.9107 6.16416 13.7318 8.0579 10.7292 11.1113ZM14.6486 15.1771C16.6348 13.1016 19.4327 11.809 22.5329 11.809C28.5598 11.809 33.4458 16.6939 33.4458 22.7219C33.4458 28.7488 28.5598 33.6349 22.5329 33.6349C16.506 33.6349 11.62 28.7488 11.62 22.7219C11.62 19.7951 12.7725 17.1372 14.6486 15.1771Z" fill="#EF3E5C"/>
<path d="M21.4947 35.3287C15.4677 35.3287 10.5818 30.4427 10.5818 24.4159C10.5818 21.9733 11.385 19.7184 12.741 17.8996C12.0234 19.3539 11.62 20.9907 11.62 22.7219C11.62 28.7488 16.5061 33.6348 22.5329 33.6348C26.1149 33.6348 29.2938 31.9089 31.2835 29.2433C29.502 32.8486 25.7882 35.3287 21.4947 35.3287Z" fill="#E42A53"/>
<path d="M38.0524 24.4159C38.0524 15.271 30.6394 7.85814 21.4947 7.85814C16.8725 7.85814 12.6936 9.75187 9.69101 12.8053C9.04056 13.4664 8.44555 14.182 7.91273 14.9444C8.66555 13.5325 9.61657 12.2422 10.7292 11.1114C13.7319 8.058 17.9108 6.16426 22.5329 6.16426C31.6777 6.16426 39.0906 13.5772 39.0906 22.722C39.0906 26.2441 37.9899 29.5088 36.1147 32.1925C37.3509 29.8736 38.0524 27.2268 38.0524 24.4159Z" fill="#E42A53"/>
<path d="M20.7004 18.6364C19.4256 18.6364 18.3935 19.6684 18.3935 20.9403C18.3935 23.2452 20.7004 24.5564 23.0043 26.8613C25.3081 24.5564 27.6119 23.2452 27.6119 20.9403C27.6119 19.6684 26.5799 18.6364 25.3081 18.6364C24.9073 18.6364 23.5805 19.2127 23.0043 20.3651C22.428 19.2127 21.8518 18.6364 20.7004 18.6364Z" fill="#EF3E5C"/>
<path d="M21.3431 21.1537C20.7669 20.0013 20.1907 19.4251 19.0393 19.4251C19.0132 19.4251 18.9875 19.4262 18.9617 19.4271C19.3845 18.9429 20.0063 18.6364 20.7004 18.6364C21.639 18.6364 22.1953 19.0194 22.681 19.785C22.1928 20.071 21.6567 20.5262 21.3431 21.1537Z" fill="#E42A53"/>
<path d="M25.9508 21.7289C25.9508 20.4896 24.9708 19.4784 23.7439 19.4275C24.3433 18.9008 25.0372 18.6364 25.3081 18.6364C26.5799 18.6364 27.6119 19.6684 27.6119 20.9403C27.6119 23.2452 25.3081 24.5564 23.0043 26.8613C22.8694 26.7263 22.7345 26.5952 22.6001 26.4666C24.4165 24.8292 25.9508 23.6098 25.9508 21.7289Z" fill="#E42A53"/>
<path d="M14.6486 15.1771C12.7726 17.1372 11.62 19.7951 11.62 22.7219C11.62 28.7488 16.5061 33.6349 22.5329 33.6349C28.5597 33.6349 33.4458 28.7488 33.4458 22.7219C33.4458 16.6939 28.5598 11.809 22.5329 11.809C19.4327 11.809 16.6347 13.1016 14.6486 15.1771ZM18.3935 20.9403C18.3935 19.6684 19.4255 18.6364 20.7004 18.6364C21.8519 18.6364 22.4281 19.2127 23.0043 20.3651C23.5805 19.2127 24.9073 18.6364 25.3081 18.6364C26.5799 18.6364 27.6119 19.6684 27.6119 20.9403C27.6119 23.2452 25.3081 24.5564 23.0043 26.8613C20.7004 24.5564 18.3935 23.2452 18.3935 20.9403Z" fill="#FFC230"/>
<path d="M32.4075 24.4159C32.4075 18.3878 27.5216 13.503 21.4947 13.503C18.3945 13.503 15.5965 14.7956 13.6103 16.871C13.3 17.1954 13.0098 17.5391 12.741 17.8997C13.2367 16.8953 13.8821 15.9779 14.6486 15.1772C16.6348 13.1017 19.4327 11.8091 22.5329 11.8091C28.5598 11.8091 33.4458 16.694 33.4458 22.722C33.4458 25.1669 32.6417 27.424 31.2835 29.2434C32.0027 27.7877 32.4075 26.1492 32.4075 24.4159Z" fill="#E09E1B"/>
<path d="M16.6805 17.8038C16.8102 17.8038 16.9399 17.7555 17.0408 17.6584C17.2471 17.4594 17.2532 17.1308 17.0542 16.9244L0.89303 0.159019C0.694208 -0.0472779 0.365504 -0.0535074 0.159103 0.145522C-0.0472973 0.344551 -0.0534234 0.673151 0.145606 0.879552L16.3067 17.6449C16.4086 17.7506 16.5444 17.8038 16.6805 17.8038Z" fill="#FFC230"/>
<path d="M8.98605 45.2546H40.9719C41.2586 45.2546 41.491 45.0223 41.491 44.7355C41.491 44.4488 41.2586 44.2164 40.9719 44.2164H8.98595C8.69919 44.2164 8.46683 44.4488 8.46683 44.7355C8.46683 45.0223 8.69929 45.2546 8.98605 45.2546Z" fill="#FFC230"/>
<path d="M2.40043 6.68337C2.45484 6.68337 2.51028 6.67476 2.56468 6.65659L5.3867 5.71585C5.54171 5.66414 5.66329 5.54256 5.71489 5.38745L6.65563 2.5645C6.74627 2.29248 6.59925 1.99856 6.32734 1.90792C6.05574 1.81708 5.7614 1.96419 5.67076 2.23631L4.81204 4.813L2.23639 5.67151C1.96438 5.76225 1.81747 6.05618 1.9081 6.3282C1.98057 6.54581 2.18313 6.68337 2.40043 6.68337Z" fill="#FFC230"/>
<path d="M0.519155 4.80221C0.573662 4.80221 0.629105 4.79359 0.683508 4.77542L3.50729 3.83312C3.66137 3.7811 3.78221 3.65973 3.83371 3.50545L4.77435 0.683537C4.86499 0.411521 4.71808 0.117597 4.44606 0.0268555C4.17446 -0.0639899 3.88012 0.0831275 3.78948 0.355248L2.93076 2.93131L0.355011 3.79055C0.0829942 3.88129 -0.0639168 4.17532 0.0268247 4.44723C0.0993972 4.66464 0.301853 4.80221 0.519155 4.80221Z" fill="#FFC230"/>
</svg>
