<svg width="428" height="390" viewBox="0 0 428 390" fill="none" xmlns="http://www.w3.org/2000/svg">
<g opacity="0.5">
<path d="M71.9734 105.788C82.0387 105.788 90.2118 113.951 90.2118 124.026C90.2118 134.102 82.0387 142.265 71.9734 142.265C61.8979 142.265 53.7249 134.102 53.7249 124.026C53.7249 113.95 61.8979 105.788 71.9734 105.788Z" fill="#FFC592"/>
<path d="M75.9995 118.998C81.6945 118.998 86.7815 121.614 90.1263 125.709C90.1776 125.154 90.2118 124.595 90.2118 124.026C90.2118 113.951 82.0387 105.788 71.9734 105.788C61.8979 105.788 53.7249 113.951 53.7249 124.026C53.7249 128.399 55.2679 132.411 57.8355 135.553C58.6871 126.268 66.4918 118.998 75.9995 118.998Z" fill="#EFA873"/>
<path d="M284.01 3.80533C292.555 12.3408 289.747 24.8721 290.622 41.0673C274.417 40.1916 261.907 42.9898 253.37 34.4544C248.65 29.7438 248.257 22.4866 252.485 18.2592C256.32 14.4243 260.366 14.6457 266.555 17.001C264.2 10.8209 263.978 6.76454 267.803 2.9397C272.052 -1.29882 279.299 -0.905265 284.01 3.80533Z" fill="#EF3E5C"/>
<path d="M259.195 25.6401C263.03 21.8052 267.076 22.0267 273.266 24.382C270.91 18.2018 270.689 14.1455 274.514 10.3207C277.918 6.9246 283.245 6.5099 287.653 8.90043C286.757 7.06954 285.576 5.3695 284.009 3.80534C279.298 -0.905255 272.051 -1.29781 267.803 2.93971C263.978 6.76455 264.2 10.8209 266.555 17.001C260.366 14.6457 256.319 14.4243 252.485 18.2592C248.257 22.4867 248.649 29.7438 253.37 34.4544C254.552 35.6361 255.812 36.5933 257.145 37.3804C255.517 33.2808 256.157 28.6799 259.195 25.6401Z" fill="#E42A53"/>
<path d="M352.998 59.2756C357.236 63.5131 356.842 70.7702 352.133 75.4808C343.597 84.0163 331.066 81.208 314.87 82.0837C315.746 65.8885 312.948 53.3672 321.483 44.8318C326.193 40.1212 333.451 39.7286 337.678 43.9561C341.514 47.7809 341.291 51.8373 338.936 58.0174C345.126 55.6621 349.173 55.4397 352.998 59.2756Z" fill="#EF3E5C"/>
<path d="M330.71 49.025C333.017 46.718 335.935 45.4538 338.81 45.2535C338.479 44.8167 338.108 44.3839 337.678 43.9551C333.451 39.7276 326.193 40.1202 321.483 44.8308C312.948 53.3662 315.746 65.8875 314.87 82.0827C318.151 81.9055 321.279 81.8794 324.257 81.8794C324.552 67.8009 322.964 56.7713 330.71 49.025Z" fill="#E42A53"/>
<path d="M292.515 99.5371C306.487 113.508 301.887 134.011 303.315 160.513C276.823 159.074 256.33 163.653 242.369 149.693C234.659 141.983 234.015 130.106 240.929 123.191C247.199 116.92 253.823 117.282 263.938 121.127C260.093 111.012 259.731 104.389 266.002 98.1279C272.939 91.1929 284.806 91.826 292.515 99.5371Z" fill="#EF3E5C"/>
<path d="M250.995 132.249C257.266 125.979 263.89 126.341 274.005 130.186C270.16 120.07 269.797 113.447 276.068 107.187C281.328 101.928 289.422 101.031 296.389 104.263C295.287 102.614 294.013 101.036 292.514 99.537C284.805 91.827 272.938 91.1928 266.002 98.1279C259.732 104.389 260.093 111.012 263.938 121.127C253.822 117.282 247.199 116.92 240.929 123.191C234.015 130.106 234.659 141.983 242.369 149.693C244.568 151.892 246.93 153.629 249.451 155.004C244.723 147.565 245.123 138.122 250.995 132.249Z" fill="#E42A53"/>
<path d="M422.45 191.644C429.586 198.781 429.586 210.346 422.45 217.482L414.901 225.021L389.062 199.183L396.611 191.644C400.174 188.071 404.854 186.289 409.536 186.289C414.205 186.289 418.875 188.072 422.45 191.644Z" fill="#F78F4B"/>
<path d="M400.134 199.506C403.697 195.933 408.377 194.151 413.059 194.151C417.729 194.151 422.398 195.933 425.972 199.506C426.528 200.062 427.024 200.653 427.493 201.257C426.848 197.736 425.172 194.367 422.45 191.644C418.875 188.071 414.206 186.289 409.536 186.289C404.855 186.289 400.174 188.071 396.611 191.644L389.062 199.183L394.756 204.876L400.134 199.506Z" fill="#DD7840"/>
<path d="M389.055 199.175L363.218 225.013L389.055 250.85L414.893 225.013L389.055 199.175Z" fill="#49BAA5"/>
<path d="M389.062 210.256L409.365 230.557L414.9 225.021L389.062 199.184L363.224 225.021L368.76 230.557L389.062 210.256Z" fill="#3DA38F"/>
<path d="M280.134 359.786L227.02 388.524L254.296 333.948L280.134 359.786Z" fill="#FFECB2"/>
<path d="M256.226 345.692L273.766 363.232L280.134 359.786L254.296 333.948L227.02 388.524L237.71 382.74L256.226 345.692Z" fill="#EAD496"/>
<path d="M363.219 225.022L254.292 333.949L280.13 359.786L389.056 250.86L363.219 225.022Z" fill="#415A6B"/>
<path d="M363.224 236.428L383.359 256.562L389.062 250.859L363.224 225.021L254.297 333.948L260.001 339.652L363.224 236.428Z" fill="#344C59"/>
<path d="M358.451 313.638C357.164 313.638 355.874 313.146 354.893 312.163C352.927 310.198 352.927 307.011 354.893 305.047L399.084 260.855L387.354 249.126C385.388 247.16 385.388 243.973 387.353 242.008C389.318 240.043 392.506 240.044 394.47 242.007L409.759 257.297C410.703 258.241 411.234 259.52 411.234 260.855C411.234 262.189 410.704 263.47 409.759 264.413L362.009 312.163C361.027 313.145 359.738 313.638 358.451 313.638Z" fill="#49BAA5"/>
<path d="M107.77 398.749C70.5189 398.749 39.4834 392.733 14.5545 367.804C-12.8515 340.397 -12.8515 295.805 14.5545 268.398C37.9967 244.945 61.7208 244.25 91.2143 252.752C87.8465 241.001 86.2561 231.238 86.2561 222.526C86.2561 204.904 92.7976 190.155 106.844 176.108C120.135 162.812 137.802 155.483 156.589 155.475C156.6 155.475 156.611 155.475 156.621 155.475C175.392 155.475 193.033 162.78 206.301 176.048C225.045 194.794 234.409 218.026 236.66 251.376C236.848 254.149 234.752 256.55 231.979 256.736C229.213 256.92 226.805 254.828 226.619 252.055C224.542 221.31 216.081 200.064 199.184 183.165C187.818 171.799 172.702 165.541 156.621 165.541C156.611 165.541 156.603 165.541 156.594 165.541C140.494 165.548 125.354 171.829 113.962 183.225C101.762 195.426 96.3225 207.545 96.3225 222.526C96.3225 232.314 98.6486 243.847 103.642 258.819C104.246 260.628 103.775 262.621 102.427 263.97C101.078 265.319 99.0844 265.789 97.2777 265.186C61.1219 253.139 41.3384 255.841 21.6737 275.515C-1.80878 298.997 -1.80878 337.206 21.6727 360.688C54.2191 393.234 100.572 390.195 159.255 386.351C180.708 384.946 202.893 383.491 227.02 383.491C229.8 383.491 232.053 385.744 232.053 388.524C232.053 391.304 229.8 393.557 227.02 393.557C203.221 393.557 181.205 395 159.913 396.394C141.355 397.61 123.972 398.749 107.77 398.749Z" fill="#FFECB2"/>
<path d="M147.464 46.1C157.529 46.1 165.702 54.263 165.702 64.3385C165.702 74.4139 157.529 82.5769 147.464 82.5769C137.388 82.5769 129.215 74.4139 129.215 64.3385C129.215 54.263 137.388 46.1 147.464 46.1Z" fill="#FFC592"/>
<path d="M151.49 59.3108C157.185 59.3108 162.272 61.9268 165.617 66.0214C165.668 65.4668 165.702 64.9072 165.702 64.3385C165.702 54.263 157.529 46.1 147.464 46.1C137.388 46.1 129.215 54.263 129.215 64.3385C129.215 68.7119 130.758 72.7229 133.326 75.8653C134.177 66.58 141.982 59.3108 151.49 59.3108Z" fill="#EFA873"/>
<path d="M135.819 366.188C135.789 366.188 135.757 366.188 135.726 366.187C92.1021 365.4 64.6478 355.116 54.1255 335.623C41.7511 312.699 57.904 286.606 58.5965 285.506C60.0812 283.157 63.1873 282.453 65.5386 283.935C67.8869 285.416 68.5904 288.518 67.1138 290.869C66.9749 291.09 53.3998 313.17 63.0062 330.888C71.5748 346.69 96.7835 355.417 135.908 356.123C138.687 356.174 140.898 358.467 140.848 361.246C140.799 363.995 138.557 366.188 135.819 366.188Z" fill="#FFECB2"/>
</g>
</svg>
