<svg width="33" height="37" viewBox="0 0 33 37" fill="none" xmlns="http://www.w3.org/2000/svg">
<path d="M20.2411 12.1992C22.4127 12.1992 24.172 13.9866 24.172 16.1901C24.172 20.181 20.2411 22.4539 16.3143 26.4435C12.3874 22.4539 8.46051 20.181 8.46051 16.1901C8.46051 13.9866 10.2185 12.1992 12.3874 12.1992C14.3508 12.1992 15.3325 13.1969 16.3143 15.1924C17.296 13.1969 18.2777 12.1992 20.2411 12.1992Z" fill="#EF3E5C"/>
<path d="M2.05387 35.7855L4.90913 28.1717C2.99238 25.2974 1.87594 21.8441 1.87594 18.1305C1.87594 8.43145 9.49307 0.5098 19.0716 0.0242761C18.7592 0.00826981 18.4449 0 18.1285 0C8.11652 0 0 8.11786 0 18.1298C0 21.8433 1.11644 25.2966 3.03319 28.1712L0 36.2596L2.05387 35.7855Z" fill="#E8D49C"/>
<path d="M18.1284 32.0923C17.7601 32.0923 17.4614 31.7938 17.4614 31.4254C17.4614 31.057 17.7601 30.7585 18.1284 30.7585C25.092 30.7585 30.7573 25.0932 30.7573 18.1295C30.7573 11.1666 25.092 5.50187 18.1284 5.50187C17.7601 5.50187 17.4614 5.20322 17.4614 4.83494C17.4614 4.46667 17.7601 4.16801 18.1284 4.16801C25.8275 4.16801 32.0912 10.4311 32.0912 18.1295C32.0912 25.8287 25.8275 32.0923 18.1284 32.0923Z" fill="#E8D49C"/>
</svg>
