<svg width="161" height="108" viewBox="0 0 161 108" fill="none" xmlns="http://www.w3.org/2000/svg">
<path d="M173.914 54.1196C172.706 60.999 166.151 65.5988 159.267 64.3893C152.388 63.182 147.79 56.6222 148.997 49.7427C150.204 42.863 156.765 38.2656 163.644 39.4729C170.524 40.6803 175.124 47.2362 173.914 54.1196Z" fill="#8EAA39"/>
<path d="M162.031 45.3917C168.035 46.3249 172.392 51.3399 172.716 57.1759C173.559 55.7947 174.151 54.2289 174.415 52.5302C175.49 45.6242 170.763 39.1594 163.861 38.0869C156.96 37.0142 150.49 41.7388 149.418 48.6408C149.279 49.5382 149.239 50.4275 149.288 51.2996C151.873 47.0696 156.828 44.583 162.031 45.3917Z" fill="#80962F"/>
<path d="M129.478 45.7703C128.405 52.6721 121.94 57.3994 115.039 56.3267C108.133 55.2519 103.412 48.7855 104.485 41.8838C105.557 34.9821 112.022 30.2548 118.924 31.3271C125.826 32.3998 130.551 38.8688 129.478 45.7703Z" fill="#EF3E5C"/>
<path d="M118.093 37.4955C123.844 38.3895 128.08 43.0313 128.713 48.5468C129.065 47.6706 129.327 46.7433 129.478 45.7703C130.551 38.8686 125.826 32.3998 118.924 31.3271C112.022 30.2548 105.557 34.9821 104.485 41.8838C104.306 43.0346 104.291 44.1724 104.418 45.2758C106.56 39.9349 112.164 36.574 118.093 37.4955Z" fill="#D8395B"/>
<path d="M84.0845 36.2804C83.0117 43.1822 76.5469 47.9095 69.6412 46.8343C62.7395 45.7616 58.0122 39.2968 59.0849 32.395C60.1597 25.4891 66.6261 20.7688 73.5281 21.8411C80.4295 22.9136 85.1568 29.3784 84.0845 36.2804Z" fill="#B0B7DC"/>
<path d="M72.1674 28.3964C78.1434 29.325 82.4862 34.2978 82.8481 40.0958C83.445 38.9273 83.8716 37.6476 84.0846 36.2811C85.1569 29.3791 80.4296 22.9143 73.5282 21.8418C66.6262 20.7695 60.1598 25.4897 59.085 32.3957C58.9409 33.3214 58.9046 34.2391 58.9607 35.1372C61.3787 30.4049 66.6314 27.5362 72.1674 28.3964Z" fill="#9AA2C1"/>
<path d="M39.5479 22.6647C38.4756 29.5667 32.0107 34.294 25.109 33.2213C18.2033 32.1461 13.476 25.6813 14.5512 18.7756C15.6278 11.8763 22.0922 7.14874 28.994 8.22145C35.8957 9.29416 40.6206 15.7629 39.5479 22.6647Z" fill="#FFD15C"/>
<path d="M27.4383 14.3862C33.6593 15.3532 38.1101 20.7047 38.1415 26.8062C38.8295 25.552 39.3153 24.1595 39.5479 22.6647C40.6206 15.7629 35.8957 9.29416 28.994 8.22145C22.0922 7.14874 15.6278 11.8763 14.5512 18.7756C14.4449 19.4581 14.3971 20.1357 14.4012 20.8051C16.8898 16.2676 22.0289 13.5456 27.4383 14.3862Z" fill="#E5B64E"/>
<path d="M12.7565 2.7369C12.1393 2.34966 11.7128 1.67944 11.6682 0.89677C11.6229 0.0987622 11.996 -0.677271 12.6467 -1.14082C13.7322 -1.91322 14.7527 -1.51468 15.8332 -1.09276C16.4536 -0.850713 17.3541 -0.480743 18.5211 -0.00131272C86.146 27.792 143.143 33.2546 179.05 32.9432C180.336 32.9318 181.386 33.9647 181.396 35.2492C181.408 36.5344 180.375 37.5852 179.09 37.5959C142.755 37.9111 85.0956 32.3914 16.7519 4.30259C15.4479 3.7668 14.2064 3.25652 13.7012 3.07416C13.3588 3.03071 13.038 2.91346 12.7565 2.7369Z" fill="#415A6B"/>
</svg>
