<svg width="1068" height="276" viewBox="0 0 1068 276" fill="none" xmlns="http://www.w3.org/2000/svg">
<path d="M153.869 117.787C157.368 133.629 147.361 149.316 131.52 152.826C115.669 156.336 99.9793 146.33 96.4691 130.478C92.9708 114.625 102.977 98.937 118.818 95.4378C134.672 91.9276 150.359 101.934 153.869 117.787Z" fill="#B0B7DC"/>
<path d="M96.6327 131.138C99.0929 120.42 107.489 111.528 118.935 108.999C134.564 105.539 150.025 115.221 153.822 130.686C154.768 126.569 154.841 122.185 153.869 117.787C150.359 101.934 134.671 91.9276 118.818 95.4377C102.976 98.937 92.9698 114.625 96.4691 130.478C96.5186 130.701 96.5789 130.918 96.6327 131.138Z" fill="#9AA2C1"/>
<path d="M261.769 109.655C265.279 125.496 255.273 141.185 239.421 144.694C223.568 148.204 207.88 138.198 204.381 122.346C200.87 106.493 210.877 90.805 226.73 87.3056C242.57 83.7966 258.269 93.8029 261.769 109.655Z" fill="#FFD15C"/>
<path d="M230.093 101.278C243.326 98.3464 256.454 104.85 262.459 116.31C262.48 114.117 262.263 111.887 261.768 109.655C258.269 93.8029 242.569 83.7955 226.728 87.3056C210.876 90.805 200.869 106.493 204.379 122.346C204.957 124.956 205.869 127.405 207.053 129.664C207.178 116.291 216.473 104.285 230.093 101.278Z" fill="#E5B64E"/>
<path d="M368.05 91.8609C371.56 107.703 361.553 123.39 345.701 126.9C329.859 130.41 314.17 120.404 310.661 104.551C307.151 88.6984 317.158 73.0102 333.009 69.5108C348.862 66.0006 364.55 76.0081 368.05 91.8609Z" fill="#F34E2D"/>
<path d="M472.722 64.391C476.221 80.2438 466.214 95.9331 450.374 99.4421C434.521 102.941 418.833 92.9351 415.323 77.0932C411.823 61.2404 421.831 45.5522 437.671 42.0421C453.524 38.5428 469.212 48.5491 472.722 64.391Z" fill="#B0B7DC"/>
<path d="M441.164 57.8484C454.274 54.9533 467.267 61.3036 473.356 72.5486C473.521 69.8755 473.329 67.1374 472.722 64.3921C469.212 48.5502 453.523 38.5438 437.671 42.0432C421.829 45.5533 411.822 61.2415 415.322 77.0943C415.929 79.8332 416.908 82.3926 418.18 84.743C418.964 71.9801 428.065 60.7499 441.164 57.8484Z" fill="#9AA2C1"/>
<path d="M216.11 -13.1337C222.65 1.71974 215.912 19.0665 201.048 25.6063C186.195 32.1461 168.848 25.3976 162.308 10.5442C155.767 -4.30927 162.517 -21.6561 177.37 -28.1958C192.223 -34.7356 209.569 -27.998 216.11 -13.1337Z" fill="#8EAA39"/>
<path d="M170.441 20.9151C163.901 6.06167 170.649 -11.2851 185.503 -17.8249C195.901 -22.4027 207.517 -20.4682 215.796 -13.7983C209.035 -28.1924 191.996 -34.6354 177.369 -28.1949C162.516 -21.6551 155.766 -4.30831 162.307 10.5451C164.267 14.999 167.205 18.7168 170.75 21.5731C170.647 21.3534 170.539 21.1381 170.441 20.9151Z" fill="#80962F"/>
<path d="M111.883 15.9528C118.424 30.8171 111.686 48.1529 96.8327 54.7035C81.9684 61.2434 64.6216 54.495 58.0818 39.6415C51.5529 24.788 58.2894 7.44125 73.1429 0.901485C87.9963 -5.63828 105.343 1.09934 111.883 15.9528Z" fill="#FFD15C"/>
<path d="M68.1316 50.7897C61.6027 35.9361 68.3403 18.5894 83.1937 12.0497C92.6325 7.89419 103.072 9.10588 111.112 14.3485C104.064 0.624951 87.4491 -5.39672 73.1428 0.902613C58.2894 7.44238 51.5528 24.7891 58.0818 39.6426C60.4661 45.0584 64.291 49.3902 68.9045 52.3994C68.634 51.873 68.3732 51.339 68.1316 50.7897Z" fill="#E5B64E"/>
<path d="M34.4911 10.4805C32.7981 10.4951 31.1252 9.717 30.0583 8.24061C28.9706 6.73524 28.7275 4.74898 29.4219 3.02602C30.5788 0.155148 33.0754 -0.342107 35.7187 -0.868752C37.2342 -1.17052 39.4591 -1.57356 42.3414 -2.09471C209.511 -32.33 327.93 -92.9926 397.834 -138.557C400.338 -140.187 403.685 -139.482 405.314 -136.98C406.944 -134.479 406.239 -131.13 403.737 -129.5C332.999 -83.3898 213.213 -22.0115 44.2659 8.544C41.0435 9.12647 37.9776 9.68165 36.7615 9.95595C36.0379 10.3017 35.262 10.4738 34.4911 10.4805Z" fill="#415A6B"/>
<path d="M335.858 86.3639C349.313 83.3848 362.644 90.1441 368.511 101.949C368.931 98.6735 368.806 95.2699 368.05 91.8609C364.55 76.0081 348.862 66.0006 333.009 69.5108C317.158 73.0102 307.151 88.6984 310.661 104.551C311.192 106.947 312.004 109.205 313.049 111.309C314.581 99.361 323.418 89.1094 335.858 86.3639Z" fill="#E04127"/>
<path d="M118.937 97.4272C109.092 97.5121 99.1252 97.4673 88.9829 97.2835C85.7171 97.2252 82.6114 97.1709 81.3672 97.1989C78.8826 97.8312 76.2296 96.6108 75.1297 94.1973C74.3605 92.5086 74.513 90.5146 75.5311 88.9629C77.229 86.3771 79.7709 86.3735 82.461 86.3795C84.0039 86.3803 86.2586 86.4203 89.1794 86.474C259.03 89.5439 387.046 53.2316 464.535 22.222C467.305 21.1136 470.452 22.4607 471.563 25.232C472.672 28.0033 471.323 31.1504 468.552 32.2588C394.77 61.7855 275.73 96.0697 118.937 97.4272Z" fill="#415A6B"/>
<path d="M1096.29 149.097C1092.08 164.77 1075.96 174.066 1060.28 169.849C1044.61 165.638 1035.32 149.509 1039.53 133.835C1043.74 118.161 1059.87 108.872 1075.54 113.083C1091.22 117.294 1100.51 133.415 1096.29 149.097Z" fill="#8EAA39"/>
<path d="M1070.59 126.449C1084.29 129.846 1093.34 142.35 1092.89 155.924C1095.13 152.9 1096.82 149.399 1097.78 145.521C1101.69 129.759 1092.08 113.823 1076.33 109.92C1060.58 106.016 1044.63 115.618 1040.73 131.372C1040.22 133.42 1039.95 135.47 1039.88 137.498C1046.73 128.24 1058.71 123.506 1070.59 126.449Z" fill="#80962F"/>
<path d="M995.169 120.621C991.265 136.374 975.329 145.984 959.576 142.08C943.814 138.17 934.221 122.232 938.123 106.479C942.028 90.7263 957.964 81.1166 973.717 85.0199C989.47 88.924 999.074 104.869 995.169 120.621Z" fill="#EF3E5C"/>
<path d="M970.523 99.125C983.649 102.379 992.498 113.994 992.827 126.89C993.822 124.935 994.619 122.842 995.169 120.621C999.073 104.869 989.47 88.924 973.717 85.0199C957.964 81.1166 942.028 90.7263 938.123 106.479C937.473 109.106 937.205 111.736 937.271 114.316C943.329 102.396 956.991 95.7712 970.523 99.125Z" fill="#D8395B"/>
<path d="M892.062 89.3088C888.158 105.062 872.222 114.671 856.461 110.761C840.708 106.857 831.098 90.9206 835.002 75.1678C838.912 59.4057 854.85 49.8126 870.604 53.7158C886.356 57.6193 895.966 73.5553 892.062 89.3088Z" fill="#B0B7DC"/>
<path d="M866.105 68.6075C879.745 71.9874 888.772 84.3912 888.415 97.8848C890.037 95.3033 891.288 92.4293 892.063 89.3105C895.966 73.557 886.356 57.621 870.604 53.7175C854.851 49.8142 838.912 59.4073 835.003 75.1694C834.478 77.2824 834.205 79.3987 834.15 81.489C840.721 71.0343 853.469 65.4764 866.105 68.6075Z" fill="#9AA2C1"/>
<path d="M791.789 48.6239C787.886 64.3774 771.95 73.9871 756.197 70.083C740.435 66.1724 730.826 50.2363 734.736 34.4749C738.649 18.7286 754.584 9.11822 770.337 13.0223C786.09 16.9264 795.693 32.8711 791.789 48.6239Z" fill="#FFD15C"/>
<path d="M765.467 26.9701C779.666 30.4893 788.865 43.7917 787.681 57.9197C789.532 55.1586 790.943 52.0358 791.789 48.6239C795.693 32.8711 786.09 16.9264 770.337 13.0223C754.584 9.11822 738.649 18.7286 734.736 34.4749C734.35 36.0327 734.1 37.591 733.971 39.1411C740.666 29.1518 753.12 23.9105 765.467 26.9701Z" fill="#E5B64E"/>
<path d="M733.886 -3.01548C732.537 -4.03885 731.688 -5.67789 731.746 -7.4985C731.805 -9.35479 732.829 -11.074 734.43 -12.0129C737.101 -13.577 739.381 -12.4445 741.795 -11.2454C743.181 -10.5574 745.189 -9.5157 747.791 -8.16576C898.582 70.0874 1029.37 94.4687 1112.54 101.143C1115.52 101.381 1117.74 103.988 1117.5 106.963C1117.26 109.94 1114.65 112.159 1111.68 111.919C1027.52 105.166 895.204 80.5162 742.81 1.43106C739.903 -0.07756 737.134 -1.51425 736.003 -2.04038C735.219 -2.21145 734.501 -2.54888 733.886 -3.01548Z" fill="#415A6B"/>
<path d="M631.78 -15.2989C640.663 -1.71621 636.855 16.4994 623.262 25.384C609.679 34.2668 591.462 30.4488 582.579 16.8661C573.695 3.28355 577.514 -14.9341 591.097 -23.8169C604.679 -32.6995 622.894 -28.8921 631.78 -15.2989Z" fill="#8EAA39"/>
<path d="M592.3 25.7661C583.417 12.1834 587.235 -6.03406 600.818 -14.9169C610.327 -21.135 622.103 -21.1278 631.362 -15.903C622.335 -28.9963 604.472 -32.5635 591.096 -23.8156C577.514 -14.9329 573.694 3.28477 582.578 16.8673C585.241 20.9403 588.748 24.127 592.713 26.3645C592.575 26.1647 592.433 25.97 592.3 25.7661Z" fill="#80962F"/>
<path d="M533.719 30.4555C542.605 44.0487 538.796 62.2536 525.215 71.147C511.622 80.0317 493.404 76.2136 484.521 62.6309C475.649 49.0464 479.456 30.831 493.038 21.9482C506.621 13.0654 524.837 16.8728 533.719 30.4555Z" fill="#FFD15C"/>
<path d="M496.26 71.9837C487.388 58.3992 491.196 40.1836 504.778 31.3008C513.41 25.6564 523.907 25.143 532.696 28.9989C523.497 16.6141 506.121 13.3932 493.038 21.9492C479.456 30.832 475.649 49.0474 484.522 62.632C487.76 67.5844 492.242 71.2318 497.286 73.4452C496.933 72.9702 496.589 72.4861 496.26 71.9837Z" fill="#E5B64E"/>
<path d="M452.681 38.6185C450.995 38.9377 449.191 38.4859 447.87 37.2489C446.523 35.9875 445.934 34.1085 446.326 32.3154C446.979 29.3276 449.381 28.3964 451.925 27.4102C453.383 26.845 455.531 26.0539 458.314 25.03C619.719 -34.3638 727.207 -114.429 788.957 -171.136C791.17 -173.165 794.63 -173.086 796.691 -170.957C798.753 -168.83 798.634 -165.461 796.424 -163.431C733.937 -106.046 625.21 -25.0416 462.089 34.9824C458.978 36.127 456.018 37.2169 454.853 37.7016C454.192 38.1667 453.448 38.4731 452.681 38.6185Z" fill="#415A6B"/>
</svg>
